<svg width="13" height="24" viewBox="0 0 13 24" fill="none" xmlns="http://www.w3.org/2000/svg">
<path d="M9.62612 13.1328C9.62612 13.0575 9.55915 12.9989 9.49219 12.9989H8.49609C8.42913 12.9989 8.37054 13.0575 8.37054 13.1328V13.7187C8.37054 14.2461 7.23214 14.4721 6.62946 14.4721C5.04743 14.4721 3.90904 13.2416 3.90904 11.5592C3.90904 9.93527 4.99721 8.80525 6.5625 8.80525C7.24888 8.80525 8.26172 9.04799 8.26172 9.57533V10.1613C8.26172 10.2366 8.32031 10.2952 8.39565 10.2952H9.38337C9.45871 10.2952 9.5173 10.2366 9.5173 10.1613V9.24888C9.5173 7.91797 7.34933 7.625 6.52065 7.625C4.25223 7.625 2.54464 9.33259 2.54464 11.601C2.54464 13.9113 4.26897 15.6607 6.5625 15.6607C7.74275 15.6607 9.62612 15.2254 9.62612 14.0452V13.1328ZM6.42857 6.28571C9.38337 6.28571 11.7857 8.68806 11.7857 11.6429C11.7857 14.5977 9.38337 17 6.42857 17C3.47377 17 1.07143 14.5977 1.07143 11.6429C1.07143 8.68806 3.47377 6.28571 6.42857 6.28571ZM12.8571 11.6429C12.8571 8.09375 9.97768 5.21429 6.42857 5.21429C2.87946 5.21429 0 8.09375 0 11.6429C0 15.192 2.87946 18.0714 6.42857 18.0714C9.97768 18.0714 12.8571 15.192 12.8571 11.6429Z" fill="#A6A5A5"/>
</svg>
