<svg width="13" height="14" viewBox="0 0 13 14" fill="none" xmlns="http://www.w3.org/2000/svg">
<path d="M9.62612 8.13281C9.62612 8.05748 9.55915 7.99888 9.49219 7.99888H8.49609C8.42913 7.99888 8.37054 8.05748 8.37054 8.13281V8.71875C8.37054 9.24609 7.23214 9.4721 6.62946 9.4721C5.04743 9.4721 3.90904 8.24163 3.90904 6.55915C3.90904 4.93527 4.99721 3.80525 6.5625 3.80525C7.24888 3.80525 8.26172 4.04799 8.26172 4.57533V5.16127C8.26172 5.23661 8.32031 5.2952 8.39565 5.2952H9.38337C9.45871 5.2952 9.5173 5.23661 9.5173 5.16127V4.24888C9.5173 2.91797 7.34933 2.625 6.52065 2.625C4.25223 2.625 2.54464 4.33259 2.54464 6.601C2.54464 8.91127 4.26897 10.6607 6.5625 10.6607C7.74275 10.6607 9.62612 10.2254 9.62612 9.0452V8.13281ZM6.42857 1.28571C9.38337 1.28571 11.7857 3.68806 11.7857 6.64286C11.7857 9.59766 9.38337 12 6.42857 12C3.47377 12 1.07143 9.59766 1.07143 6.64286C1.07143 3.68806 3.47377 1.28571 6.42857 1.28571ZM12.8571 6.64286C12.8571 3.09375 9.97768 0.214285 6.42857 0.214285C2.87946 0.214285 0 3.09375 0 6.64286C0 10.192 2.87946 13.0714 6.42857 13.0714C9.97768 13.0714 12.8571 10.192 12.8571 6.64286Z" fill="#A6A5A5"/>
</svg>
