<svg width="25" height="27" viewBox="0 0 25 27" fill="none" xmlns="http://www.w3.org/2000/svg">
<path fill-rule="evenodd" clip-rule="evenodd" d="M11.5148 11.8411C11.7682 11.5074 12.0757 11.1879 12.4378 10.88C12.7998 10.5721 13.1593 10.234 13.5162 9.86427C13.8729 9.49365 14.178 9.00918 14.4314 8.41024C14.6849 7.81133 14.8116 7.13662 14.8116 6.38549C14.8116 5.44792 14.615 4.61489 14.222 3.88499C13.8289 3.15593 13.2497 2.46263 12.4845 1.8065H14.5168L16.6578 0.430338H10.1728C9.01427 0.430338 7.88951 0.597349 6.79833 0.930501C5.70704 1.26423 4.76337 1.77455 3.96705 2.46263C3.31541 3.02552 2.80338 3.7078 2.43105 4.51061C2.05867 5.31229 1.8725 6.14151 1.8725 6.99544C1.8725 8.53804 2.39722 9.81198 3.44712 10.8172C4.4969 11.8228 5.78734 12.3256 7.31808 12.3256C7.54542 12.3256 7.89723 12.3046 8.37302 12.2631C8.15597 12.7734 8.04724 13.2161 8.04724 13.5916C8.04724 14.0192 8.12727 14.3997 8.28768 14.7334C8.44797 15.0663 8.69357 15.4523 9.02467 15.8891C6.20103 16.0771 4.11164 16.5984 2.75675 17.4521C1.99133 17.9319 1.37848 18.5311 0.91835 19.25C0.457999 19.9691 0.227879 20.7505 0.227879 21.5942C0.227879 22.3346 0.419281 23.0175 0.802006 23.6416C1.39155 24.6428 2.27829 25.3597 3.46275 25.7916C4.64702 26.224 5.9218 26.4404 7.28708 26.4404C8.9316 26.4404 10.4726 26.141 11.9103 25.5415C13.3479 24.9423 14.4394 24.007 15.184 22.7357C15.6805 21.8704 15.9287 20.97 15.9287 20.0313C15.9287 19.2189 15.7631 18.4785 15.4322 17.8116C15.101 17.1456 14.703 16.6033 14.2376 16.1863C13.7722 15.7701 13.3041 15.3869 12.8336 15.0372C12.3628 14.689 11.9621 14.3338 11.6312 13.9745C11.3 13.6149 11.1347 13.2478 11.1347 12.8728C11.1347 12.519 11.2612 12.1748 11.5148 11.8411ZM7.37243 10.966C6.91211 10.6949 6.52422 10.3461 6.20876 9.91888C5.8931 9.49133 5.62434 9.00918 5.40205 8.4727C5.17954 7.93565 5.01657 7.39947 4.9133 6.863C4.80981 6.32624 4.75821 5.81825 4.75821 5.3387C4.75821 4.28696 5.00113 3.45278 5.4874 2.83731C5.74576 2.49372 6.08469 2.22039 6.50362 2.01736C6.92258 1.81404 7.34916 1.71182 7.78356 1.71182C8.44522 1.71182 9.05032 1.92558 9.5988 2.35312C10.1469 2.78038 10.5839 3.31946 10.9098 3.97095C11.2354 4.62214 11.4863 5.29776 11.6622 5.9957C11.8378 6.69367 11.9258 7.34516 11.9258 7.94931C11.9258 9.01179 11.6518 9.84072 11.1037 10.4341C10.8346 10.7159 10.4931 10.9419 10.0797 11.1144C9.66592 11.286 9.26251 11.3726 8.8695 11.3726C8.33163 11.3726 7.8324 11.2369 7.37243 10.966ZM6.92258 24.7915C6.27591 24.6405 5.66039 24.411 5.07627 24.1037C4.49185 23.7964 4.01854 23.3634 3.65664 22.8057C3.29451 22.2489 3.11369 21.605 3.11369 20.8753C3.11369 20.2607 3.25323 19.7112 3.53246 19.2267C3.81189 18.7423 4.16599 18.3539 4.59534 18.062C5.0244 17.7707 5.52622 17.5311 6.10024 17.3431C6.67424 17.1558 7.23006 17.0257 7.76801 16.9525C8.30568 16.8796 8.84871 16.843 9.397 16.843C9.72791 16.843 9.97615 16.8529 10.1418 16.8746C10.1728 16.8947 10.3614 17.0303 10.7079 17.2804C11.0544 17.5311 11.269 17.687 11.3518 17.7495C11.4345 17.8116 11.6233 17.9633 11.9181 18.2023C12.213 18.4431 12.4119 18.622 12.5155 18.7423C12.6188 18.8616 12.7715 19.044 12.9731 19.2892C13.1748 19.534 13.3145 19.7501 13.392 19.9381C13.4696 20.1251 13.5445 20.3444 13.617 20.5939C13.6892 20.8443 13.7255 21.1001 13.7255 21.3607C13.7255 22.0067 13.5833 22.5739 13.299 23.0642C13.0143 23.5536 12.6369 23.9344 12.1664 24.2051C11.6955 24.4758 11.1836 24.6783 10.6304 24.8148C10.077 24.9501 9.50027 25.0178 8.90049 25.0178C8.22817 25.0178 7.56869 24.9423 6.92258 24.7915ZM21.4673 7.93304H19.8384V11.3258H16.5493V13.0134H19.8384V16.4366H21.4673V13.0134H24.7719V11.3258H21.4673V7.93304Z" fill="white"/>
</svg>
