<svg width="25" height="25" viewBox="0 0 25 25" fill="none" xmlns="http://www.w3.org/2000/svg">
<path fill-rule="evenodd" clip-rule="evenodd" d="M18.1718 1.87445C16.3462 0.800927 14.3526 0.264167 12.191 0.264167C10.0291 0.264167 8.0355 0.800927 6.21008 1.87445C4.38437 2.94853 2.93898 4.40459 1.87372 6.24256C0.808271 8.08258 0.27575 10.0911 0.27575 12.2683C0.27575 14.6977 0.932525 16.9008 2.24613 18.8802C3.55952 20.8605 5.28166 22.3247 7.41236 23.273C7.37097 22.1577 7.43812 21.2355 7.61416 20.5053L9.15016 13.9721C8.89142 13.4621 8.7622 12.8263 8.7622 12.0653C8.7622 11.1797 8.98449 10.4396 9.4294 9.84622C9.8739 9.25166 10.4169 8.95512 11.0583 8.95512C11.5755 8.95512 11.9737 9.12678 12.2529 9.47065C12.5324 9.81515 12.6719 10.2468 12.6719 10.7681C12.6719 11.0917 12.6123 11.4844 12.4934 11.9482C12.3744 12.4121 12.2193 12.9486 12.0281 13.5576C11.8366 14.1679 11.6995 14.6552 11.6169 15.0195C11.4719 15.655 11.591 16.1996 11.9737 16.6527C12.3562 17.1067 12.8631 17.3329 13.494 17.3329C14.6008 17.3329 15.5083 16.7134 16.217 15.4726C16.9252 14.2332 17.2796 12.7269 17.2796 10.9558C17.2796 9.59091 16.8426 8.48081 15.9686 7.62658C15.0945 6.77206 13.8766 6.34511 12.315 6.34511C10.5669 6.34511 9.15254 6.91003 8.07184 8.04046C6.99095 9.17149 6.45049 10.5233 6.45049 12.0966C6.45049 13.0345 6.7142 13.8214 7.24186 14.4569C7.4176 14.6654 7.47446 14.8894 7.41236 15.1293C7.39157 15.1917 7.35048 15.3477 7.28838 15.5984C7.22631 15.8479 7.18483 16.0099 7.16413 16.0825C7.08126 16.4163 6.88489 16.5203 6.57466 16.3954C5.77816 16.0616 5.17304 15.4836 4.75945 14.6599C4.34565 13.8371 4.13888 12.8838 4.13888 11.7998C4.13888 11.1019 4.24988 10.4039 4.47239 9.70507C4.69479 9.00768 5.04114 8.33209 5.51178 7.68091C5.98244 7.0294 6.54615 6.45429 7.20303 5.95358C7.85973 5.45311 8.65874 5.05259 9.60001 4.75051C10.541 4.44784 11.5548 4.29683 12.6409 4.29683C14.1094 4.29683 15.4282 4.62504 16.597 5.28147C17.7656 5.93876 18.6578 6.78804 19.2733 7.82989C19.8885 8.87174 20.1964 9.98681 20.1964 11.1742C20.1964 12.7377 19.9273 14.1441 19.3898 15.3956C18.8518 16.6454 18.0915 17.6278 17.109 18.3414C16.1263 19.0551 15.0092 19.412 13.7579 19.412C13.127 19.412 12.5374 19.2642 11.9892 18.9665C11.4409 18.6696 11.0634 18.3182 10.8567 17.9115C10.3913 19.7562 10.112 20.855 10.0189 21.209C9.8223 21.9494 9.4189 22.8042 8.80883 23.7729C9.91529 24.1066 11.0428 24.2733 12.191 24.2733C14.3526 24.2733 16.3462 23.7363 18.1718 22.6631C19.9971 21.5898 21.4427 20.1338 22.5081 18.2944C23.5731 16.4555 24.1061 14.4464 24.1061 12.2683C24.1061 10.0911 23.5731 8.08258 22.5081 6.24256C21.4427 4.40459 19.9971 2.94853 18.1718 1.87445Z" fill="white"/>
</svg>
