<svg width="26" height="21" viewBox="0 0 26 21" fill="none" xmlns="http://www.w3.org/2000/svg">
<path fill-rule="evenodd" clip-rule="evenodd" d="M22.1356 4.0057C23.2216 3.34985 23.9558 2.42215 24.3387 1.22346C23.3458 1.81801 22.2854 2.22405 21.1582 2.44248C20.1652 1.37912 18.9448 0.848188 17.4968 0.848188C16.1106 0.848188 14.9291 1.34138 13.9517 2.32571C12.9743 3.30976 12.4855 4.50063 12.4855 5.89685C12.4855 6.27212 12.5267 6.65813 12.6097 7.05343C10.5617 6.95002 8.64043 6.43128 6.84608 5.49835C5.05136 4.56658 3.52844 3.32313 2.27704 1.77095C1.82173 2.55286 1.5944 3.40186 1.5944 4.31852C1.5944 5.18348 1.796 5.98572 2.19939 6.72609C2.6029 7.46616 3.14582 8.06451 3.82846 8.52313C3.02175 8.49205 2.26654 8.27797 1.5634 7.88267V7.94511C1.5634 9.16416 1.94342 10.2348 2.7037 11.1569C3.46387 12.0791 4.42318 12.6598 5.5816 12.9C5.1472 13.0138 4.70738 13.0716 4.26285 13.0716C3.97322 13.0716 3.65786 13.0458 3.31642 12.9935C3.63697 14.0046 4.22654 14.835 5.08513 15.4864C5.94352 16.1376 6.91588 16.474 8.00183 16.4949C6.18127 17.9332 4.1077 18.6521 1.78054 18.6521C1.33565 18.6521 0.932252 18.6312 0.570436 18.5894C2.89757 20.1009 5.46257 20.8558 8.26562 20.8558C10.0444 20.8558 11.715 20.5726 13.2768 20.0039C14.8385 19.436 16.1727 18.6756 17.2795 17.7218C18.3861 16.7688 19.3403 15.6723 20.142 14.4321C20.9434 13.1919 21.5408 11.897 21.934 10.5476C22.327 9.19756 22.5235 7.84637 22.5235 6.4911C22.5235 6.19951 22.5181 5.9805 22.508 5.8344C23.4905 5.11611 24.3283 4.24591 25.0212 3.22409C24.0593 3.64147 23.0974 3.90144 22.1356 4.0057V4.0057Z" fill="white"/>
</svg>
