<?xml version="1.0" standalone="no"?>
<!DOCTYPE svg PUBLIC "-//W3C//DTD SVG 20010904//EN"
 "http://www.w3.org/TR/2001/REC-SVG-20010904/DTD/svg10.dtd">
<svg version="1.0" xmlns="http://www.w3.org/2000/svg"
 width="1728.000000pt" height="2160.000000pt" viewBox="0 0 1728.000000 2160.000000"
 preserveAspectRatio="xMidYMid meet">

<g transform="translate(0.000000,2160.000000) scale(0.100000,-0.100000)"
fill="#000000" stroke="none">
<path d="M4338 20951 c-14 -12 -33 -21 -41 -21 -17 0 -30 -27 -21 -41 3 -5 7
-22 9 -38 3 -22 -1 -30 -16 -34 -12 -3 -19 -14 -19 -29 0 -39 -14 -50 -56 -46
-32 2 -40 7 -42 26 -2 12 1 22 7 22 6 0 11 5 11 10 0 22 -40 8 -66 -22 -15
-18 -39 -38 -53 -44 -32 -14 -117 -84 -101 -84 6 0 8 -5 5 -10 -4 -6 -15 -8
-26 -5 -11 4 -19 2 -19 -6 0 -9 -3 -9 -14 0 -11 9 -20 9 -35 2 -11 -6 -30 -11
-43 -12 -21 0 -21 -1 -3 -8 17 -7 16 -9 -10 -14 -23 -4 -41 2 -73 23 -49 32
-82 30 -82 -5 0 -13 7 -30 15 -39 19 -18 5 -29 -34 -24 -33 3 -81 -28 -81 -53
0 -20 25 -43 38 -35 5 3 17 -3 27 -14 10 -11 14 -21 9 -22 -30 -5 -64 -2 -64
5 0 5 -10 5 -21 2 -16 -5 -20 -4 -15 6 4 8 1 6 -7 -3 -8 -10 -19 -18 -26 -18
-6 0 -11 -5 -11 -12 0 -8 -5 -7 -16 3 -19 20 -65 13 -71 -11 -3 -10 -17 -24
-31 -31 -76 -38 -82 -46 -78 -107 2 -31 7 -66 11 -76 8 -18 9 -18 18 5 6 16
11 19 14 11 7 -18 -11 -35 -39 -39 -40 -6 -78 -25 -78 -39 0 -17 -20 -19 -20
-1 0 6 -5 4 -11 -5 -5 -10 -19 -18 -29 -18 -28 0 -25 -25 5 -44 42 -27 63 -56
57 -78 -4 -16 -10 -19 -34 -14 -33 7 -48 -15 -28 -39 10 -13 10 -19 -4 -33 -9
-10 -16 -26 -16 -34 0 -9 -7 -21 -15 -28 -20 -16 -46 -70 -39 -81 14 -24 84 5
84 35 0 17 2 18 10 6 5 -8 14 -16 20 -16 5 -1 13 -2 17 -3 3 0 -1 -9 -9 -18
-9 -10 -14 -30 -13 -45 3 -19 -1 -28 -11 -28 -17 0 -18 -12 -2 -28 10 -10 6
-18 -20 -40 -38 -33 -41 -61 -10 -103 17 -23 20 -32 10 -38 -7 -4 -13 -16 -12
-27 4 -84 7 -97 23 -108 22 -17 22 -33 -2 -41 -12 -4 -18 -12 -14 -21 4 -10 9
-12 18 -4 9 7 16 6 25 -5 7 -8 17 -12 22 -9 6 4 6 -1 0 -13 -9 -17 -8 -19 11
-19 18 1 23 -5 25 -38 2 -25 0 -36 -7 -31 -14 8 -25 -20 -15 -37 5 -7 9 -26
10 -43 1 -16 2 -41 3 -53 0 -15 9 -26 21 -29 22 -6 26 -18 10 -28 -5 -3 -10
-13 -10 -21 0 -8 5 -12 10 -9 6 3 10 -1 10 -10 0 -12 -5 -15 -16 -11 -12 5
-15 2 -9 -11 12 -30 13 -67 4 -85 -6 -11 -6 -18 0 -18 5 0 9 -15 8 -33 -1 -46
24 -97 48 -97 20 -1 20 -1 0 -16 -19 -14 -19 -16 -3 -28 10 -7 15 -16 12 -19
-7 -7 5 -47 14 -46 22 3 41 -3 59 -20 12 -11 23 -17 27 -14 3 3 12 0 21 -7 18
-15 2 -42 -21 -33 -9 3 -14 -1 -14 -12 0 -10 6 -15 18 -13 26 5 50 -49 57
-133 4 -41 30 -164 57 -274 43 -173 66 -246 108 -340 5 -11 14 -44 21 -74 7
-31 22 -65 35 -78 28 -27 79 -31 113 -7 29 21 35 13 56 -81 56 -246 128 -442
208 -563 56 -85 52 -67 77 -347 14 -147 7 -317 -15 -368 -18 -43 -64 -83 -107
-92 -44 -10 -86 -32 -125 -66 -18 -15 -65 -46 -105 -70 -40 -23 -109 -63 -153
-89 -44 -27 -144 -82 -222 -123 -135 -71 -363 -206 -483 -286 -30 -20 -190
-104 -355 -186 -633 -318 -907 -471 -1049 -585 -140 -113 -242 -269 -347 -532
-23 -57 -66 -161 -96 -233 -189 -446 -245 -591 -287 -730 -13 -44 -60 -188
-105 -320 -45 -132 -113 -348 -151 -480 -38 -133 -81 -272 -95 -310 -14 -39
-39 -113 -54 -165 -16 -52 -45 -139 -65 -193 -29 -77 -36 -110 -34 -150 l3
-52 104 -51 c57 -29 168 -75 245 -104 78 -29 147 -57 153 -64 24 -22 -51 -529
-117 -796 -116 -471 -202 -692 -402 -1031 -145 -246 -218 -375 -262 -469 l-36
-74 0 -1556 0 -1555 51 90 c28 50 64 115 81 145 17 30 42 75 56 100 38 68 163
303 217 410 50 98 167 292 390 650 289 464 355 586 488 895 80 189 147 367
187 500 18 61 64 196 103 300 l69 190 8 175 c7 156 12 189 44 300 37 134 194
604 244 735 17 44 67 179 112 300 77 208 93 245 104 234 10 -10 67 -496 62
-524 -8 -46 -152 -691 -192 -860 -45 -191 -84 -356 -133 -570 -88 -376 -153
-652 -206 -875 -169 -706 -251 -1124 -275 -1400 -14 -153 -78 -746 -85 -780
-8 -42 -43 -369 -50 -470 -4 -52 -22 -188 -41 -301 -42 -253 -43 -297 -9 -331
l24 -24 -15 -135 c-8 -74 -28 -233 -44 -354 -41 -300 -56 -409 -75 -550 -41
-302 -58 -416 -75 -500 -11 -49 -29 -148 -40 -220 -12 -71 -26 -150 -31 -175
-11 -48 -42 -230 -89 -515 -17 -99 -34 -205 -40 -235 -5 -30 -26 -143 -46
-250 -59 -322 -72 -402 -79 -465 -4 -33 -16 -121 -26 -195 -11 -74 -26 -193
-34 -264 -23 -195 -37 -285 -96 -581 -20 -105 -38 -219 -38 -252 l-1 -33 1564
0 1564 0 4 103 c10 216 73 572 138 767 20 63 59 183 85 265 45 140 187 447
229 494 8 9 42 56 75 105 68 99 157 199 175 193 6 -2 23 -50 37 -108 14 -57
47 -169 72 -249 25 -80 62 -224 83 -320 20 -96 52 -229 71 -295 19 -66 47
-185 63 -265 39 -197 97 -460 120 -545 10 -38 21 -87 25 -107 l6 -38 1036 0
1036 0 -7 228 c-6 170 -3 274 8 415 9 104 16 234 16 290 0 56 7 172 15 257 8
85 18 182 21 216 l5 61 127 6 c168 7 219 20 295 71 60 42 178 85 317 116 64
15 118 40 142 67 10 11 54 105 98 209 141 331 153 357 221 469 83 136 124 255
114 330 -4 28 -10 100 -15 160 -5 61 -18 207 -30 325 -16 161 -21 281 -20 474
1 288 6 331 68 496 l36 95 7 275 c7 274 11 331 50 615 34 254 59 404 89 545
78 364 143 755 181 1085 10 96 22 179 69 490 46 303 50 370 61 845 12 539 9
571 -51 752 -58 169 -69 224 -81 408 -11 150 -10 183 10 360 19 179 40 413 57
663 8 114 -1 106 139 136 183 40 391 90 435 104 42 14 45 17 42 47 -1 18 -16
87 -33 154 -29 117 -38 167 -80 441 -30 198 -45 312 -84 660 -19 176 -44 370
-55 430 -10 61 -26 166 -35 235 -8 69 -24 186 -35 260 -11 74 -22 151 -25 170
-3 19 -10 140 -15 269 -10 236 -22 392 -41 531 -30 219 -115 409 -247 554 -15
17 -75 85 -133 151 -120 137 -277 288 -394 380 -103 81 -424 296 -524 350
-152 84 -447 264 -496 303 -27 22 -106 76 -175 122 -69 45 -144 99 -167 120
-50 47 -104 75 -180 95 -66 17 -219 115 -310 199 -77 70 -181 200 -209 261
-69 152 -74 688 -13 1295 18 175 22 180 107 135 26 -14 62 -25 80 -25 39 0 78
34 87 77 4 15 17 53 30 83 54 125 70 209 84 447 5 80 13 139 21 148 9 10 9 15
1 15 -6 0 -11 5 -11 10 0 6 7 10 15 10 9 0 15 9 15 25 0 14 -4 25 -10 25 -5 0
-10 -7 -10 -16 0 -8 -4 -12 -10 -9 -16 10 12 46 32 39 26 -8 22 10 -4 21 -18
8 -23 18 -23 47 0 28 3 34 13 26 9 -8 12 -6 12 8 0 11 -9 25 -20 32 -12 7 -18
17 -15 22 4 6 11 7 17 4 7 -5 9 -1 5 9 -7 20 29 95 58 119 l20 17 -20 7 c-25
10 -36 25 -26 39 9 12 8 26 -2 43 -5 7 -3 12 4 12 7 0 3 10 -10 24 -12 13 -24
39 -28 59 -4 30 -2 36 16 42 16 5 20 12 16 26 -4 13 -2 19 8 19 17 0 30 -27
21 -42 -3 -5 3 -4 15 4 38 23 36 46 -8 87 -36 34 -41 44 -41 84 0 31 5 47 15
51 8 3 15 15 15 27 0 16 5 20 20 16 15 -4 20 0 20 16 0 20 2 20 26 -8 16 -20
27 -26 30 -17 3 6 12 12 20 12 18 0 18 14 -1 30 -8 7 -15 10 -15 7 0 -3 -12 6
-28 21 -25 25 -32 62 -11 62 22 0 6 17 -26 29 -19 7 -35 18 -35 26 0 7 -3 21
-7 31 -5 13 -3 16 10 11 22 -8 21 2 -2 32 -21 28 -16 67 10 74 21 6 24 23 9
47 -8 13 -13 13 -31 2 -18 -12 -23 -12 -30 -1 -4 8 -6 23 -3 34 3 12 -3 32
-15 47 -26 33 -26 45 -1 53 11 3 27 13 35 21 19 19 20 65 2 59 -14 -6 -17 51
-4 72 10 16 -22 33 -61 33 -21 0 -31 6 -35 20 -4 15 0 20 13 20 11 0 21 -4 25
-10 9 -14 35 0 35 20 0 23 -31 50 -59 50 -14 0 -25 9 -31 25 -8 22 -13 23 -35
15 -20 -7 -25 -6 -25 5 0 9 -6 12 -15 9 -21 -8 -20 25 2 41 36 27 -2 52 -69
46 -12 -2 -18 5 -18 20 0 17 -5 20 -23 17 -13 -3 -24 0 -25 6 -1 6 -3 31 -4
56 -2 25 -6 50 -10 56 -10 15 -59 5 -78 -16 -33 -37 -100 -30 -100 9 0 6 -4
11 -9 11 -5 0 -8 14 -6 31 4 28 3 29 -12 17 -15 -11 -16 -11 -10 4 7 19 -26
48 -55 48 -29 0 -86 40 -92 64 -3 13 -14 26 -23 30 -10 3 -34 15 -53 27 -23
14 -55 23 -94 25 -72 3 -113 19 -148 57 -19 21 -32 27 -47 22 -12 -4 -35 0
-53 9 -17 9 -37 16 -45 16 -8 0 -34 21 -58 46 -25 26 -49 43 -55 39 -7 -4 -18
2 -26 14 -13 18 -18 19 -37 8 -12 -6 -24 -14 -27 -17 -5 -5 -48 -12 -95 -14
-16 0 -33 -5 -37 -11 -4 -5 -8 2 -8 17 0 15 -6 30 -12 35 -21 13 -78 10 -78
-5 0 -7 -8 -12 -17 -10 -14 2 -17 -3 -15 -19 2 -13 -5 -34 -15 -48 -21 -29
-38 -33 -23 -6 15 29 12 41 -10 41 -12 0 -25 -13 -36 -35 -15 -32 -44 -49 -44
-25 0 7 -30 8 -83 4 -79 -6 -85 -5 -100 16 -8 12 -19 20 -24 17 -13 -8 -88 48
-85 65 3 21 -27 45 -68 53 -28 5 -41 2 -62 -14z m105 -23 c4 -12 4 -24 1 -27
-6 -7 -24 20 -24 37 0 21 17 13 23 -10z m-21 -60 c-7 -7 -12 -8 -12 -2 0 14
12 26 19 19 2 -3 -1 -11 -7 -17z m1308 -263 c0 -8 -4 -15 -9 -15 -13 0 -22 16
-14 24 11 11 23 6 23 -9z m-2299 -258 c-8 -8 -11 -7 -11 4 0 20 13 34 18 19 3
-7 -1 -17 -7 -23z m-117 -103 c3 -8 2 -12 -4 -9 -6 3 -10 10 -10 16 0 14 7 11
14 -7z m2976 -8 c0 -3 -4 -8 -10 -11 -5 -3 -10 -1 -10 4 0 6 5 11 10 11 6 0
10 -2 10 -4z m190 -272 c0 -8 -5 -12 -10 -9 -6 4 -8 11 -5 16 9 14 15 11 15
-7z m-3290 -124 c0 -5 -4 -10 -10 -10 -5 0 -10 5 -10 10 0 6 5 10 10 10 6 0
10 -4 10 -10z m80 -254 c0 -8 -4 -18 -10 -21 -5 -3 -10 3 -10 14 0 12 5 21 10
21 6 0 10 -6 10 -14z m3310 -456 c0 -5 -7 -10 -15 -10 -8 0 -15 5 -15 10 0 6
7 10 15 10 8 0 15 -4 15 -10z m-3295 -80 c3 -5 0 -19 -8 -31 -17 -24 -29 -13
-20 19 6 23 18 28 28 12z m15 -220 c0 -5 -5 -10 -11 -10 -5 0 -7 5 -4 10 3 6
8 10 11 10 2 0 4 -4 4 -10z m62 -182 c-8 -8 -9 -4 -5 13 4 13 8 18 11 10 2 -7
-1 -18 -6 -23z m2063 -238 c3 -5 -1 -10 -10 -10 -9 0 -13 5 -10 10 3 6 8 10
10 10 2 0 7 -4 10 -10z m-1155 -90 c0 -5 -4 -10 -10 -10 -5 0 -10 5 -10 10 0
6 5 10 10 10 6 0 10 -4 10 -10z m1085 -8 c-3 -3 -11 0 -18 7 -9 10 -8 11 6 5
10 -3 15 -9 12 -12z m-930 -42 c-6 -10 -76 -32 -83 -25 -8 8 10 26 22 22 7 -3
19 -1 27 4 19 12 42 11 34 -1z m525 -455 c10 -12 10 -18 0 -30 -17 -20 -32
-19 -53 5 -19 22 -22 35 -8 25 5 -3 12 -1 16 5 9 15 31 12 45 -5z m-30 -775
c0 -5 -2 -10 -4 -10 -3 0 -8 5 -11 10 -3 6 -1 10 4 10 6 0 11 -4 11 -10z m175
0 c-3 -5 -11 -10 -16 -10 -6 0 -7 5 -4 10 3 6 11 10 16 10 6 0 7 -4 4 -10z
m1079 -3321 c179 -31 478 -90 581 -113 33 -8 104 -24 158 -36 75 -17 97 -25
97 -38 0 -16 -52 -273 -124 -613 -19 -91 -42 -185 -52 -210 -56 -144 -178
-249 -357 -309 -103 -34 -267 -64 -312 -57 -39 6 -185 102 -263 172 -119 107
-197 236 -214 353 -10 69 -9 92 6 164 30 142 135 600 152 667 l17 64 70 -7
c38 -3 147 -20 241 -37z m-3449 -180 c-10 -18 -19 -57 -22 -88 -5 -49 -2 -59
17 -76 31 -28 101 -24 242 13 62 16 147 37 188 46 41 10 111 25 155 35 44 10
118 26 165 36 47 9 114 23 150 31 84 18 139 22 138 9 -1 -5 -22 -15 -47 -22
-120 -31 -552 -182 -793 -277 -219 -87 -296 -95 -332 -36 -21 36 -16 86 16
158 15 34 22 41 29 31 7 -10 8 -6 4 12 -5 19 0 34 19 56 14 17 26 34 26 38 0
12 51 77 57 72 2 -3 -3 -20 -12 -38z m4809 -3921 c29 -143 6 -409 -74 -856
-45 -249 -54 -443 -41 -872 12 -403 43 -780 97 -1175 39 -291 82 -996 62
-1028 -8 -12 -28 33 -28 62 0 10 -9 60 -19 112 -15 73 -20 159 -25 379 -7 314
-12 375 -56 660 -110 731 -143 1145 -105 1341 42 224 130 936 161 1317 7 80
19 106 28 60z m-444 -4207 c-75 -8 -142 -49 -176 -107 -15 -25 -29 -43 -31
-40 -10 10 60 98 95 120 51 32 60 35 117 34 l50 -1 -55 -6z m108 -28 c15 -16
19 -21 7 -12 -11 9 -29 21 -40 27 -11 6 -14 12 -8 12 7 0 25 -12 41 -27z m-32
-112 c-3 -5 -35 -21 -71 -36 -49 -21 -69 -25 -77 -17 -8 8 -8 17 0 34 8 18 11
19 11 6 1 -23 24 -23 86 2 59 23 58 22 51 11z m-295 -57 c-5 -16 -10 -21 -10
-12 -1 18 10 51 15 45 2 -1 -1 -16 -5 -33z m-14 -71 c-3 -10 -5 -4 -5 12 0 17
2 24 5 18 2 -7 2 -21 0 -30z m0 -70 c-3 -10 -5 -4 -5 12 0 17 2 24 5 18 2 -7
2 -21 0 -30z m383 -156 c0 -2 -17 -19 -37 -38 l-38 -34 34 38 c33 34 41 42 41
34z m-235 -85 c-3 -3 -11 0 -18 7 -9 10 -8 11 6 5 10 -3 15 -9 12 -12z m150 8
c-3 -5 -12 -10 -18 -10 -7 0 -6 4 3 10 19 12 23 12 15 0z m-57 -17 c-16 -2
-40 -2 -55 0 -16 2 -3 4 27 4 30 0 43 -2 28 -4z m327 -2155 c22 -29 53 -65 69
-80 24 -22 28 -32 23 -57 -4 -17 -2 -43 3 -57 6 -15 12 -70 14 -123 2 -53 7
-106 11 -118 10 -32 -30 -67 -101 -87 -32 -9 -73 -24 -91 -34 -18 -9 -35 -14
-38 -11 -2 3 -1 39 5 80 5 41 10 128 10 194 0 66 5 147 10 180 17 104 31 165
39 165 4 0 25 -24 46 -52z m-131 -703 c3 -9 -1 -18 -10 -22 -19 -7 -28 2 -21
22 8 19 23 19 31 0z m91 -15 c3 -5 -1 -10 -10 -10 -9 0 -13 5 -10 10 3 6 8 10
10 10 2 0 7 -4 10 -10z"/>
<path d="M5940 13667 c-15 -24 -16 -34 -8 -45 23 -27 49 -34 79 -22 50 21 33
83 -24 93 -24 4 -32 -1 -47 -26z m68 -23 c2 -15 -3 -23 -17 -27 -24 -6 -46 16
-37 39 9 23 50 14 54 -12z"/>
<path d="M5970 13640 c0 -5 4 -10 9 -10 6 0 13 5 16 10 3 6 -1 10 -9 10 -9 0
-16 -4 -16 -10z"/>
<path d="M6168 13605 c-6 -14 -15 -25 -20 -25 -4 0 -8 -7 -8 -15 0 -8 -7 -15
-15 -15 -18 0 -19 -12 -3 -28 9 -9 8 -12 -5 -12 -9 0 -17 -4 -17 -10 0 -5 4
-10 8 -10 5 0 7 -13 4 -28 -2 -16 4 -43 15 -62 24 -42 61 -48 100 -14 15 13
34 22 41 19 8 -3 15 6 18 24 4 19 11 28 19 25 9 -4 15 8 20 35 4 23 11 43 16
47 13 7 11 24 -2 24 -7 0 -22 11 -35 26 -17 18 -35 26 -64 27 -22 1 -40 5 -40
9 0 18 -21 6 -32 -17z m38 -60 c9 -8 12 -20 9 -26 -5 -6 -12 -4 -21 8 -24 32
-15 45 12 18z m74 -36 c0 -5 -11 -9 -25 -9 -24 0 -32 10 -19 22 8 8 44 -3 44
-13z m-85 -19 c3 6 11 8 16 4 5 -3 7 -9 4 -14 -3 -4 5 -11 18 -15 20 -7 21 -7
3 -12 -11 -3 -28 -15 -37 -27 -10 -11 -18 -16 -19 -10 0 6 7 17 15 24 8 7 12
16 9 21 -10 16 -23 10 -38 -18 -10 -19 -15 -23 -16 -11 0 9 5 20 10 23 6 4 8
16 4 28 -6 19 -5 20 9 9 10 -9 17 -10 22 -2z"/>
<path d="M6374 13579 c-16 -32 -16 -33 6 -51 54 -44 127 4 91 60 -4 8 -24 16
-44 19 -32 4 -37 1 -53 -28z m71 -19 c0 -20 -5 -25 -25 -25 -28 0 -41 32 -18
46 23 15 43 5 43 -21z"/>
<path d="M6410 13560 c0 -5 5 -10 10 -10 6 0 10 5 10 10 0 6 -4 10 -10 10 -5
0 -10 -4 -10 -10z"/>
<path d="M5914 13546 c4 -16 1 -26 -9 -30 -29 -11 -14 -26 25 -26 27 0 43 -5
46 -15 4 -8 12 -15 20 -15 8 0 14 -5 14 -10 0 -6 16 -18 35 -27 43 -20 45 -33
6 -33 -44 0 -78 16 -86 39 -6 21 -35 30 -35 11 0 -5 -9 -10 -19 -10 -28 0 -35
-17 -12 -30 13 -6 18 -16 14 -27 -5 -13 -1 -15 28 -9 23 4 41 1 54 -8 11 -7
39 -19 63 -26 23 -7 42 -17 42 -21 0 -9 93 -22 148 -20 26 1 67 14 105 33 34
17 82 35 107 39 40 6 50 4 95 -26 28 -18 67 -38 88 -45 21 -6 36 -14 34 -16
-7 -8 -107 33 -127 51 -11 10 -24 14 -30 10 -9 -6 -9 -9 0 -15 7 -4 11 -13 9
-19 -3 -7 -18 -1 -40 15 l-36 25 -28 -25 c-21 -20 -24 -26 -11 -26 10 0 16 -8
16 -21 0 -16 5 -20 19 -16 11 3 48 -1 83 -8 34 -8 67 -11 72 -8 5 3 27 6 50 7
27 1 40 6 38 14 -3 15 8 15 42 2 39 -14 33 -37 -8 -32 -31 4 -33 2 -29 -21 3
-13 16 -30 29 -37 20 -12 25 -10 41 9 10 12 28 23 41 24 31 2 80 43 67 55 -5
6 -36 15 -69 21 -62 11 -126 44 -126 65 0 9 16 5 50 -12 47 -23 54 -24 90 -12
22 7 40 19 40 25 0 28 -62 63 -160 90 -71 19 -90 30 -90 52 0 24 30 27 51 4
25 -27 64 -36 92 -23 20 10 20 11 -10 11 -18 1 -33 5 -33 10 0 4 8 8 18 8 41
0 52 4 62 24 11 19 10 20 -10 9 -12 -6 -25 -8 -28 -4 -4 4 -1 9 6 11 6 3 12 8
12 12 0 9 -87 7 -96 -2 -4 -4 -22 -7 -39 -7 -24 0 -35 -6 -43 -25 -24 -52 -13
-64 81 -91 105 -30 137 -45 137 -65 0 -28 -25 -24 -107 16 -96 46 -137 54
-278 55 -110 0 -121 -2 -133 -20 -7 -11 -20 -20 -30 -20 -10 0 -29 -11 -42
-25 -17 -18 -30 -23 -49 -19 -34 8 -71 52 -71 86 0 22 -9 32 -50 55 -36 20
-50 34 -50 50 0 25 -19 41 -29 24 -6 -9 -15 -9 -35 -1 -27 10 -28 9 -22 -14z"/>
<path d="M6814 13488 c-16 -31 -16 -32 6 -50 25 -21 38 -22 74 -8 28 10 34 37
16 71 -8 13 -21 19 -45 19 -29 0 -37 -5 -51 -32z m74 -21 c3 -26 1 -28 -25
-25 -31 3 -44 35 -21 49 23 15 43 5 46 -24z"/>
<path d="M6850 13470 c0 -5 5 -10 10 -10 6 0 10 5 10 10 0 6 -4 10 -10 10 -5
0 -10 -4 -10 -10z"/>
<path d="M5862 13308 c-25 -32 -22 -53 9 -72 26 -15 35 -16 60 -6 31 13 35 24
19 64 -8 21 -16 26 -44 26 -18 0 -38 -6 -44 -12z m66 -34 c2 -15 -3 -23 -17
-27 -24 -6 -46 16 -37 39 9 23 50 14 54 -12z"/>
<path d="M5890 13270 c0 -5 5 -10 10 -10 6 0 10 5 10 10 0 6 -4 10 -10 10 -5
0 -10 -4 -10 -10z"/>
<path d="M6076 13219 c-9 -16 -22 -29 -27 -29 -6 0 -7 -9 -4 -20 3 -11 2 -20
-4 -20 -13 0 -3 -66 17 -112 12 -27 22 -36 32 -32 8 3 20 7 26 8 7 1 20 8 29
16 10 8 25 15 34 15 9 0 17 10 19 23 4 24 18 30 25 10 5 -15 27 35 27 62 0 10
5 22 10 25 15 9 12 25 -5 25 -8 0 -15 6 -15 13 0 17 -53 39 -104 42 -38 3 -45
0 -60 -26z m60 -82 c-1 -17 -8 -33 -16 -35 -16 -6 -40 -27 -40 -36 0 -3 7 -6
15 -6 8 0 15 5 15 10 0 6 4 10 10 10 5 0 7 -7 4 -15 -7 -17 -40 -20 -49 -5 -4
6 -2 17 4 24 6 7 8 22 4 32 -6 17 -5 17 10 5 14 -11 18 -11 23 4 4 9 2 21 -5
28 -6 6 -11 17 -11 24 0 10 4 11 19 1 12 -7 18 -22 17 -41z m64 2 c0 -5 -11
-8 -25 -7 -24 2 -31 9 -19 20 8 8 44 -3 44 -13z m-40 -49 c0 -5 -5 -10 -11
-10 -5 0 -7 5 -4 10 3 6 8 10 11 10 2 0 4 -4 4 -10z"/>
<path d="M6292 13200 c-10 -26 -8 -34 8 -50 23 -23 58 -26 85 -6 16 11 17 19
9 47 -9 31 -14 34 -51 37 -38 3 -41 1 -51 -28z m73 -20 c0 -18 -6 -26 -23 -28
-13 -2 -25 3 -28 12 -10 26 4 48 28 44 17 -2 23 -10 23 -28z"/>
<path d="M6330 13180 c0 -5 5 -10 10 -10 6 0 10 5 10 10 0 6 -4 10 -10 10 -5
0 -10 -4 -10 -10z"/>
<path d="M5823 13180 c3 -10 -2 -25 -10 -31 -19 -16 0 -29 45 -29 17 0 32 -5
32 -10 0 -6 11 -15 25 -20 14 -5 25 -14 25 -21 0 -6 6 -9 12 -7 11 4 48 -31
48 -46 0 -8 -60 4 -85 17 -11 6 -26 18 -33 29 -13 18 -42 25 -42 9 0 -5 -10
-12 -22 -15 -20 -6 -21 -8 -7 -19 9 -6 14 -18 12 -24 -3 -9 9 -13 41 -13 25 0
46 -4 46 -9 0 -5 8 -11 18 -14 9 -3 55 -19 102 -36 124 -44 190 -40 281 18 54
34 123 49 135 30 4 -7 3 -14 -4 -17 -8 -2 -7 -11 4 -28 15 -23 15 -24 -4 -24
-10 0 -31 9 -45 20 -25 20 -27 20 -46 3 -25 -21 -27 -33 -5 -33 11 0 15 -6 11
-20 -6 -23 -6 -23 28 -10 18 7 35 6 58 -3 46 -17 163 -7 179 16 4 7 20 7 49
-2 37 -11 40 -14 27 -28 -12 -12 -20 -13 -36 -4 -26 14 -35 14 -27 1 4 -6 1
-17 -5 -25 -10 -12 -9 -15 4 -15 9 0 16 -7 16 -15 0 -22 27 -18 43 6 8 11 21
19 28 18 32 -5 92 40 80 60 -4 6 -30 15 -59 21 -54 10 -105 32 -134 58 -31 27
-19 31 27 11 53 -24 105 -18 105 10 0 31 -45 61 -131 89 -59 19 -85 32 -87 45
-4 21 15 22 57 1 33 -17 81 -12 81 7 0 6 -7 9 -15 5 -8 -3 -15 -1 -15 4 0 6 6
10 14 10 8 0 18 5 22 12 5 8 0 9 -14 6 -12 -4 -22 -2 -22 3 0 5 5 9 10 9 6 0
10 3 10 8 0 4 -20 6 -45 4 -25 -2 -45 -8 -45 -13 0 -5 -10 -9 -23 -9 -46 0
-62 -43 -28 -74 10 -9 51 -26 92 -37 70 -19 109 -41 109 -61 0 -17 -42 -7
-111 30 l-72 37 -155 -3 c-143 -3 -157 -5 -170 -23 -8 -11 -19 -18 -25 -16 -7
2 -19 -1 -27 -8 -8 -8 -31 -16 -50 -20 -30 -5 -37 -3 -46 17 -34 69 -47 88
-67 94 -42 13 -77 45 -77 70 0 24 -14 32 -25 14 -4 -7 -12 -7 -25 0 -29 16
-43 12 -37 -10z m782 -278 c-6 -7 -125 41 -135 53 -6 7 23 -1 63 -18 41 -18
73 -34 72 -35z"/>
<path d="M6731 13108 c-11 -29 -9 -35 10 -50 25 -21 37 -22 75 -8 23 9 26 14
20 42 -8 40 -8 40 -55 45 -36 4 -40 2 -50 -29z m74 -18 c0 -20 -5 -25 -25 -25
-28 0 -41 32 -18 46 23 15 43 5 43 -21z"/>
<path d="M6770 13090 c0 -5 5 -10 10 -10 6 0 10 5 10 10 0 6 -4 10 -10 10 -5
0 -10 -4 -10 -10z"/>
<path d="M5785 12920 c-13 -25 -14 -34 -4 -46 23 -28 46 -34 79 -23 30 11 31
14 25 48 -4 20 -8 37 -8 38 -1 0 -19 4 -39 8 -34 6 -38 5 -53 -25z m70 -25 c0
-31 -49 -28 -53 3 -3 20 0 23 25 20 20 -2 28 -8 28 -23z"/>
<path d="M5820 12900 c0 -5 5 -10 10 -10 6 0 10 5 10 10 0 6 -4 10 -10 10 -5
0 -10 -4 -10 -10z"/>
<path d="M5965 12899 c-4 -6 -18 -8 -32 -4 -22 5 -24 3 -18 -12 11 -24 12
-173 2 -173 -4 0 -9 6 -11 13 -17 65 -21 69 -57 73 -35 3 -36 2 -34 -33 2 -30
8 -38 35 -49 17 -8 34 -23 37 -34 3 -11 11 -20 18 -20 8 0 16 -8 19 -17 9 -29
92 -66 155 -71 51 -3 62 0 123 36 72 43 135 68 146 58 3 -4 1 -16 -6 -27 -10
-16 -10 -24 -1 -35 9 -11 8 -14 -4 -14 -8 0 -20 7 -27 15 -17 20 -33 19 -47
-4 -10 -16 -9 -20 3 -25 8 -3 13 -11 12 -17 -3 -11 61 -15 155 -10 38 2 34 17
-11 40 -21 11 -45 28 -52 38 -14 17 -14 17 5 1 11 -9 36 -23 55 -30 43 -18 62
-40 54 -62 -5 -12 -16 -16 -38 -14 -17 2 -31 -1 -31 -7 0 -5 -4 -16 -8 -22 -5
-9 -3 -13 7 -13 9 0 16 -4 16 -10 0 -16 19 -12 36 9 9 10 24 17 33 14 9 -2 32
10 50 28 33 30 34 32 16 45 -10 8 -24 14 -31 14 -7 0 -25 16 -40 35 -36 47
-21 64 29 35 26 -16 45 -20 66 -15 76 17 32 75 -85 110 -54 17 -84 31 -84 41
0 19 20 18 55 -6 32 -21 80 -27 90 -10 3 6 1 10 -6 10 -10 0 -10 3 -1 12 17
17 15 28 -5 21 -11 -4 -14 -3 -9 5 5 9 -10 12 -58 10 -58 -1 -68 -5 -82 -25
-21 -33 -8 -47 69 -68 79 -22 117 -42 117 -60 0 -24 -35 -17 -91 17 -42 27
-64 33 -122 36 -95 6 -204 -14 -218 -39 -5 -10 -14 -19 -20 -19 -6 0 -22 -9
-36 -20 -54 -42 -116 -9 -121 64 -1 16 -7 35 -13 42 -14 17 -2 71 17 82 11 6
13 17 9 35 -8 31 -21 42 -30 26z"/>
<path d="M6086 12871 c-4 -6 -12 -8 -18 -5 -14 9 -78 -65 -71 -82 3 -8 1 -14
-5 -14 -16 0 15 -103 35 -117 22 -17 25 -17 64 10 19 13 42 26 52 30 9 3 17
13 17 21 0 8 4 16 8 18 5 2 12 24 15 49 6 42 4 47 -18 57 -14 7 -25 17 -25 23
0 6 -7 8 -17 5 -9 -4 -20 -2 -23 5 -6 8 -9 8 -14 0z m-6 -83 c0 -13 -23 -5
-28 10 -2 7 2 10 12 6 9 -3 16 -11 16 -16z m56 -15 c-11 -11 -46 -14 -46 -3 0
6 12 10 27 10 14 0 23 -3 19 -7z m-56 -29 c0 -8 5 -14 11 -14 7 0 0 -9 -14
-20 -14 -11 -29 -20 -33 -20 -5 0 2 7 14 16 24 16 21 36 -5 32 -9 -2 -18 2
-20 8 -2 7 7 12 22 12 14 0 25 -6 25 -14z"/>
<path d="M6231 12851 c-5 -4 -14 -19 -20 -34 -9 -23 -7 -31 9 -47 51 -51 132
6 88 62 -14 17 -61 29 -77 19z m54 -51 c0 -18 -6 -26 -23 -28 -24 -4 -38 18
-28 44 3 9 15 14 28 12 17 -2 23 -10 23 -28z"/>
<path d="M6250 12800 c0 -5 5 -10 10 -10 6 0 10 5 10 10 0 6 -4 10 -10 10 -5
0 -10 -4 -10 -10z"/>
<path d="M6650 12741 c-27 -52 11 -95 68 -75 31 11 37 29 23 67 -9 22 -17 27
-45 27 -25 0 -38 -6 -46 -19z m67 -12 c6 -6 8 -19 6 -30 -7 -27 -50 -25 -58 2
-10 32 28 52 52 28z"/>
<path d="M6680 12710 c0 -5 5 -10 10 -10 6 0 10 5 10 10 0 6 -4 10 -10 10 -5
0 -10 -4 -10 -10z"/>
<path d="M6142 12492 c-16 -33 -16 -35 7 -53 58 -47 133 7 89 63 -7 9 -28 18
-46 20 -30 4 -36 1 -50 -30z m76 -4 c16 -16 -3 -48 -29 -48 -22 0 -34 22 -25
45 6 18 37 20 54 3z"/>
<path d="M6180 12470 c0 -5 5 -10 10 -10 6 0 10 5 10 10 0 6 -4 10 -10 10 -5
0 -10 -4 -10 -10z"/>
<path d="M13157 20450 c-9 -6 -21 -9 -26 -5 -11 6 -26 -33 -17 -43 8 -8 -45
-62 -61 -62 -7 0 -13 -8 -13 -18 0 -10 -13 -39 -30 -65 -16 -26 -30 -52 -30
-57 0 -17 -18 -11 -23 8 -4 16 -5 16 -6 0 -1 -24 -18 -23 -73 7 -138 73 -298
-16 -398 -222 -12 -24 -25 -43 -30 -43 -5 0 -16 -13 -25 -30 -10 -19 -20 -27
-30 -24 -9 4 -15 0 -15 -10 0 -9 -5 -16 -11 -16 -5 0 -8 -4 -5 -9 5 -7 -20
-23 -49 -31 -5 -2 -23 -20 -38 -41 -16 -22 -33 -37 -38 -33 -5 3 -9 -4 -9 -16
0 -12 -13 -35 -30 -52 -16 -16 -30 -33 -30 -38 0 -5 -12 -21 -26 -35 -21 -21
-25 -34 -24 -68 4 -58 2 -69 -10 -62 -5 3 -10 -2 -10 -13 0 -10 -5 -33 -11
-51 -10 -28 -15 -31 -53 -31 -67 0 -81 -22 -78 -126 2 -47 -1 -84 -6 -84 -5 0
-15 -13 -22 -29 -6 -16 -22 -39 -36 -52 -28 -26 -32 -44 -6 -30 14 7 18 6 18
-10 0 -10 -3 -19 -7 -19 -4 0 -5 -8 -2 -19 3 -10 0 -22 -5 -25 -6 -4 -8 -22
-5 -43 5 -28 3 -34 -7 -28 -10 6 -12 0 -8 -23 2 -17 1 -29 -3 -27 -15 10 -28
-23 -25 -68 2 -26 0 -47 -5 -47 -5 0 -9 5 -9 12 0 6 -3 9 -6 5 -4 -3 1 -25 10
-47 9 -22 14 -51 10 -64 -3 -13 -1 -34 6 -45 6 -12 7 -21 1 -21 -5 0 -12 6
-15 13 -3 6 -3 1 0 -12 6 -25 10 -52 19 -166 3 -38 10 -110 17 -160 6 -49 12
-142 13 -205 1 -76 7 -130 18 -160 20 -55 36 -129 42 -194 3 -26 12 -94 20
-150 8 -55 17 -135 20 -176 4 -41 13 -115 21 -164 8 -48 14 -89 12 -90 -139
-79 -197 -172 -205 -331 -4 -75 -2 -101 17 -155 12 -36 31 -81 43 -100 l22
-35 5 29 5 29 23 -41 c12 -23 41 -56 64 -75 41 -35 42 -35 12 -30 l-29 5 30
-21 c77 -54 197 -63 290 -22 l46 20 146 -152 c81 -84 185 -190 232 -236 61
-61 86 -94 92 -120 16 -68 13 -78 -28 -86 -69 -13 -128 -37 -193 -80 -132 -86
-182 -116 -263 -156 -328 -165 -900 -529 -1177 -750 -145 -116 -343 -311 -389
-384 -96 -152 -140 -450 -140 -950 0 -209 10 -339 40 -485 33 -158 30 -296
-15 -650 -20 -162 -41 -320 -46 -350 -5 -30 -16 -116 -25 -190 -8 -74 -24
-171 -34 -215 -11 -45 -25 -121 -31 -171 -6 -49 -16 -116 -22 -149 -6 -33 -14
-109 -18 -170 -4 -60 -17 -146 -29 -190 -13 -44 -25 -117 -28 -162 -5 -76 -4
-87 22 -140 46 -93 132 -165 353 -292 10 -6 7 -48 -17 -212 -25 -172 -39 -234
-90 -396 -75 -238 -93 -328 -126 -618 -34 -301 -55 -398 -120 -571 -68 -178
-119 -354 -135 -459 -6 -44 -22 -116 -35 -160 -26 -89 -44 -169 -74 -325 -11
-58 -34 -148 -51 -200 -50 -156 -118 -420 -129 -500 -6 -41 -16 -106 -21 -145
-19 -131 -38 -190 -129 -392 -49 -112 -118 -269 -152 -350 -33 -82 -86 -202
-116 -268 -30 -66 -77 -183 -103 -260 -27 -77 -60 -169 -75 -205 -15 -36 -57
-157 -94 -270 -80 -241 -213 -530 -380 -825 -59 -104 -138 -248 -175 -320 -38
-71 -90 -161 -117 -198 -118 -163 -126 -194 -84 -349 35 -130 50 -284 30 -314
-17 -26 -21 -79 -5 -69 6 3 10 1 10 -4 0 -6 -4 -11 -10 -11 -19 0 -11 -48 10
-55 11 -3 20 -9 20 -13 0 -4 7 -61 15 -127 8 -65 15 -123 15 -128 0 -5 35 -45
78 -90 69 -74 144 -158 211 -238 26 -32 106 -79 163 -98 20 -7 61 -25 90 -41
65 -36 98 -37 136 -6 27 24 32 25 108 16 43 -5 96 -14 117 -20 34 -10 38 -14
33 -38 -5 -27 -10 -193 -22 -652 -3 -135 -8 -248 -10 -252 -7 -11 -23 -199
-29 -345 -6 -130 7 -431 21 -480 4 -13 12 -23 20 -23 7 0 16 -11 20 -25 5 -21
9 -23 27 -14 16 9 23 8 33 -6 11 -15 14 -12 24 24 8 31 8 57 -1 104 -7 34 -11
71 -11 82 1 11 -8 55 -18 99 -11 43 -20 103 -20 132 0 29 -6 73 -14 96 -7 24
-14 63 -15 87 0 25 -4 47 -9 50 -18 14 -17 360 2 390 5 8 4 16 -4 21 -11 7
-11 14 0 39 8 20 11 53 7 91 -3 33 -2 58 3 55 10 -6 20 67 35 280 13 175 29
280 45 300 4 6 9 91 9 190 2 163 4 182 21 200 24 26 28 49 34 200 2 66 9 131
15 145 8 20 10 21 10 6 1 -11 3 -17 6 -14 5 5 7 13 21 85 4 22 0 41 -12 63
-12 19 -15 34 -9 38 6 4 11 59 13 122 4 149 21 209 70 247 20 15 46 31 57 34
14 3 0 11 -48 24 -37 10 -71 23 -74 28 -4 7 1 8 13 3 44 -18 476 -99 699 -131
132 -19 302 -44 378 -55 75 -11 264 -32 420 -46 155 -14 286 -30 291 -35 6 -6
3 -9 -8 -9 -16 0 -16 -2 2 -28 22 -31 28 -59 43 -222 6 -63 17 -122 24 -130 8
-9 18 -72 25 -159 6 -79 17 -150 23 -158 7 -8 20 -23 30 -34 19 -21 23 -85 6
-91 -16 -5 -24 -95 -11 -121 11 -22 13 -31 35 -162 7 -38 17 -79 24 -90 6 -11
14 -41 18 -68 4 -26 11 -49 15 -52 5 -3 6 -38 3 -78 -4 -59 0 -95 26 -199 17
-70 31 -140 31 -155 0 -35 15 -61 23 -41 4 13 -1 70 -33 359 -5 48 -14 99 -20
113 -5 15 -10 48 -10 74 -1 26 -5 65 -9 87 -9 42 -22 97 -45 205 l-15 65 32
32 31 33 -32 0 -32 0 0 109 c0 88 3 113 16 126 14 14 15 20 4 43 -7 15 -15 51
-17 81 -3 41 -9 58 -24 69 -16 11 -20 22 -16 41 3 15 2 45 -3 67 -5 21 -16 89
-25 149 -11 78 -21 114 -33 125 -16 13 28 15 402 15 401 0 426 1 521 23 219
49 302 82 468 182 93 57 114 66 123 54 6 -8 32 -21 57 -30 43 -15 51 -14 127
5 143 36 197 61 269 126 83 76 134 115 150 115 7 0 32 15 57 34 25 19 66 43
91 52 40 15 54 16 115 6 38 -7 86 -21 106 -31 122 -63 585 -494 742 -691 49
-61 124 -170 148 -214 8 -17 19 -6 81 89 76 114 105 165 126 224 21 58 61 140
110 226 63 111 225 437 225 453 0 8 6 12 13 9 6 -2 11 -9 10 -15 -2 -6 4 -9
12 -6 19 8 19 -9 -1 -47 -24 -47 -10 -44 27 5 19 25 38 46 42 46 5 0 5 -4 2
-10 -3 -6 1 -7 9 -4 22 8 29 -17 16 -52 -9 -21 -8 -30 1 -33 12 -4 33 -24 62
-62 15 -20 18 -37 14 -91 -2 -38 -2 -68 1 -68 2 0 22 18 44 39 28 29 46 62 68
123 74 210 87 240 137 303 82 104 161 272 186 400 19 99 20 117 9 238 -7 73
-26 195 -43 272 -18 77 -31 147 -31 155 1 17 58 143 274 605 85 182 168 362
185 400 18 39 65 144 106 235 234 516 351 804 536 1325 l21 60 -2 2835 -3
2835 -28 105 c-33 123 -57 200 -102 330 -18 52 -38 138 -45 190 -6 52 -25 151
-41 220 -65 276 -162 501 -269 625 -33 39 -91 111 -130 161 -94 124 -161 178
-331 267 -354 185 -451 228 -547 241 -31 5 -67 24 -130 69 -121 88 -236 159
-309 192 -55 25 -63 32 -63 56 0 15 -5 40 -11 56 -6 15 -12 51 -13 78 -1 28
-12 70 -24 94 -12 25 -22 56 -22 70 0 14 -9 41 -20 59 -11 18 -20 47 -20 65 0
17 -6 44 -14 59 -8 15 -12 36 -9 47 3 11 -2 44 -10 73 -9 29 -18 71 -20 94 -3
23 -12 56 -20 75 -45 101 -52 137 -65 349 -5 80 -15 156 -21 170 -8 20 -9 8
-5 -56 7 -96 -7 -118 -29 -47 -8 27 -18 63 -21 82 -7 40 -52 145 -79 184 -11
16 -17 30 -15 33 10 9 40 -36 68 -102 16 -38 30 -61 30 -51 0 10 -9 36 -21 58
-32 64 -16 55 24 -13 20 -35 37 -57 37 -50 0 18 -38 91 -67 130 -13 17 -21 32
-18 32 3 0 1 10 -6 21 -6 12 -12 42 -14 68 -1 25 -8 75 -15 111 -7 36 -14 90
-14 120 -1 30 -5 61 -9 67 -4 7 -3 21 3 32 5 11 9 55 8 98 l-1 78 -6 -82 c-5
-59 -12 -87 -25 -102 -11 -12 -24 -31 -30 -44 -6 -12 -22 -26 -34 -32 -15 -7
-21 -16 -18 -28 3 -12 0 -17 -8 -14 -19 8 -11 -101 9 -123 8 -9 15 -20 15 -24
0 -4 9 -16 20 -28 24 -26 25 -34 4 -42 -9 -3 -12 -2 -9 5 4 5 -2 18 -12 27
-19 17 -47 74 -43 88 1 4 -3 10 -8 13 -15 10 -24 49 -12 56 5 3 10 11 10 18 0
6 -7 4 -17 -6 -16 -15 -16 -21 -3 -64 8 -27 14 -68 15 -93 0 -45 1 -46 30 -42
20 3 27 1 20 -6 -13 -12 -85 -23 -85 -12 0 4 4 10 10 12 5 2 6 9 1 17 -6 10
-12 5 -22 -17 -7 -17 -17 -28 -21 -26 -5 3 -6 9 -4 13 3 4 -4 7 -14 8 -25 2
-70 43 -70 63 0 9 13 37 30 63 22 36 28 54 24 77 -5 24 -1 34 25 56 17 14 31
34 31 45 0 27 -13 24 -39 -11 -12 -17 -26 -28 -32 -25 -5 4 -13 -5 -19 -19 -5
-14 -11 -26 -13 -26 -2 0 -5 30 -6 66 -1 37 -6 75 -12 85 -9 19 -7 74 7 138
l7 34 27 -32 c33 -38 39 -39 32 -6 -6 31 19 34 48 5 11 -11 27 -20 35 -20 8 0
15 -9 15 -20 0 -28 28 -25 42 5 8 19 8 31 0 50 -7 14 -12 46 -12 71 0 42 -3
47 -30 57 -17 6 -29 14 -28 17 2 3 10 22 17 42 8 21 21 40 29 43 16 6 65 -41
57 -55 -7 -12 6 -41 16 -34 5 3 6 -1 3 -9 -3 -8 1 -21 9 -28 8 -8 17 -31 21
-51 4 -21 11 -40 15 -43 13 -7 37 55 24 63 -5 4 -9 33 -9 64 1 40 -3 58 -11
58 -7 0 -13 6 -14 13 -3 27 3 62 11 65 8 3 5 87 -6 134 -7 37 -21 44 -17 10 5
-34 -74 -132 -88 -110 -7 11 -9 11 -9 -1 0 -7 -13 -29 -30 -48 -16 -18 -30
-41 -30 -49 0 -8 -5 -12 -10 -9 -6 4 -16 2 -23 -3 -9 -8 -12 6 -13 57 -1 38
-7 78 -14 90 -6 13 -9 25 -6 28 3 3 10 -6 17 -20 10 -22 14 -24 30 -14 11 7
19 18 19 25 0 7 8 16 18 19 20 8 62 50 62 64 0 5 11 9 25 9 34 0 32 13 -10 59
-19 21 -35 45 -35 52 -1 8 -8 32 -16 54 -9 22 -20 60 -24 85 -4 25 -15 63 -23
85 -13 35 -14 40 -1 43 11 3 12 7 5 16 -29 35 -30 166 -1 166 6 0 10 5 10 11
0 5 -4 8 -8 5 -5 -3 -9 24 -9 59 -1 35 -4 68 -7 73 -9 14 45 35 58 22 5 -5 17
-10 26 -10 9 1 3 7 -12 16 -16 8 -28 22 -28 31 0 13 -3 14 -12 5 -18 -18 -24
-15 -38 18 -7 17 -16 30 -21 30 -5 0 -9 22 -9 50 0 33 -5 52 -15 58 -9 4 -17
19 -20 32 -3 14 -9 26 -15 28 -5 2 -10 12 -10 22 0 31 -11 49 -26 43 -10 -3
-16 5 -20 26 -4 17 -12 35 -19 41 -7 6 -11 20 -8 31 4 15 -7 33 -39 67 -54 56
-112 140 -129 187 -7 18 -22 38 -34 43 -12 6 -25 23 -28 39 -3 16 -17 41 -31
56 -14 16 -26 32 -26 38 0 5 -4 9 -10 9 -5 0 -10 6 -10 14 0 7 -12 22 -27 31
-14 10 -54 44 -87 76 -34 33 -74 72 -91 88 -37 36 -66 51 -98 51 -13 0 -32 9
-42 20 -10 11 -34 22 -54 25 -20 4 -49 13 -65 22 -31 17 -175 20 -206 3 -9 -5
-27 -6 -40 -3 -32 9 -130 102 -130 125 0 11 -5 16 -10 13 -6 -4 -15 7 -21 23
-9 26 -15 29 -52 29 -23 0 -53 3 -67 7 -14 3 -33 1 -43 -4z m47 -19 c3 -5 -1
-11 -9 -14 -9 -4 -12 -1 -8 9 6 16 10 17 17 5z m-62 -23 c-7 -7 -12 -8 -12 -2
0 14 12 26 19 19 2 -3 -1 -11 -7 -17z m298 -148 c0 -5 -2 -10 -4 -10 -3 0 -8
5 -11 10 -3 6 -1 10 4 10 6 0 11 -4 11 -10z m-200 -640 c0 -5 -5 -10 -11 -10
-5 0 -7 5 -4 10 3 6 8 10 11 10 2 0 4 -4 4 -10z m1225 -90 c3 -5 2 -10 -4 -10
-5 0 -13 5 -16 10 -3 6 -2 10 4 10 5 0 13 -4 16 -10z m-2415 -170 c0 -5 -6 -7
-13 -4 -7 2 -22 -5 -34 -16 -12 -11 -25 -20 -28 -20 -11 0 -4 39 8 43 22 9 67
7 67 -3z m2249 -32 c1 -5 -3 -8 -8 -8 -12 0 -22 30 -14 43 6 10 20 -13 22 -35z
m10 -83 c1 -17 -1 -17 -9 -5 -5 8 -9 26 -9 40 0 23 1 23 9 5 5 -11 9 -29 9
-40z m-946 -32 c-3 -8 4 -14 18 -14 24 -2 24 -2 2 -6 -42 -8 -25 -25 17 -18
25 4 40 3 40 -3 0 -6 -6 -12 -12 -14 -9 -3 -8 -9 5 -22 19 -19 23 -31 7 -21
-18 11 -11 -4 12 -25 23 -21 44 -27 33 -10 -3 6 -1 10 4 10 6 0 11 -4 11 -10
0 -5 10 -10 23 -10 13 0 17 -3 11 -8 -6 -4 -15 -23 -18 -42 -6 -26 -5 -31 4
-20 9 13 12 12 25 -5 9 -11 13 -25 11 -32 -3 -7 1 -10 10 -6 11 4 14 -4 14
-35 0 -23 5 -44 11 -48 6 -3 9 -14 6 -24 -2 -10 0 -24 5 -31 6 -10 8 0 5 28
-5 44 6 64 26 44 6 -6 21 -11 34 -11 21 0 23 -5 23 -46 0 -65 46 -145 62 -106
5 14 7 12 7 -6 1 -13 5 -20 11 -17 6 4 22 -1 36 -10 14 -9 32 -14 40 -11 9 3
26 -5 40 -19 29 -29 34 -31 34 -9 0 12 3 14 13 6 6 -6 13 -34 15 -62 3 -52 3
-52 -22 -46 -14 3 -26 3 -26 -1 0 -15 -89 -5 -105 11 -28 28 -175 15 -175 -16
0 -4 -8 -5 -18 -3 -10 2 -25 -1 -33 -6 -11 -7 -10 -9 6 -9 15 -1 11 -5 -15
-19 -19 -11 -39 -20 -45 -21 -5 -1 -18 -6 -27 -11 -31 -17 -19 1 15 21 22 14
26 20 14 20 -10 0 -23 -5 -30 -10 -43 -37 -61 -50 -66 -50 -3 0 0 5 7 12 13
13 16 28 5 28 -5 0 -24 -10 -43 -22 -19 -12 -37 -22 -40 -23 -12 -1 -47 -32
-63 -55 -9 -13 -17 -20 -17 -14 0 13 30 55 55 76 23 20 16 23 -19 6 -14 -6
-28 -19 -31 -30 -4 -10 -11 -18 -16 -18 -5 0 -8 -5 -6 -11 1 -6 -4 -14 -12
-17 -11 -3 -8 6 7 32 24 41 22 43 -19 19 -16 -10 -31 -29 -35 -46 -3 -15 -12
-31 -20 -34 -8 -3 -14 -9 -14 -14 0 -4 7 -6 15 -3 12 5 13 -3 8 -48 -6 -58
-13 -76 -13 -36 0 14 -7 32 -16 39 -14 12 -14 14 3 20 16 7 16 8 -4 8 -28 1
-30 -2 -38 -73 -6 -49 -5 -57 6 -51 8 5 6 -1 -4 -12 -10 -12 -18 -39 -19 -66
-1 -27 -8 -49 -15 -51 -18 -7 -16 -45 1 -52 8 -3 17 -23 21 -45 4 -21 11 -39
16 -39 5 0 9 -7 9 -15 0 -9 10 -15 26 -15 14 0 23 4 19 9 -9 15 13 23 32 12
10 -6 14 -11 8 -11 -14 0 127 -140 142 -140 8 0 31 -12 53 -26 61 -41 278 -60
255 -24 -3 6 1 10 10 10 9 0 13 -4 10 -10 -3 -5 1 -10 9 -10 9 0 16 5 16 11 0
6 8 8 19 4 12 -3 21 0 25 10 3 9 11 13 16 10 17 -11 71 5 63 18 -3 7 -3 9 1 5
23 -20 226 123 226 160 0 7 14 18 30 23 17 6 30 17 30 25 0 8 4 14 9 14 5 0
11 9 14 20 3 12 14 20 26 20 28 0 85 56 111 110 13 25 26 47 30 50 4 3 9 13
11 23 3 15 11 11 44 -22 35 -37 37 -41 17 -41 -27 0 -28 -16 -2 -32 11 -7 20
-21 20 -30 0 -11 -8 -18 -20 -18 -11 0 -20 -4 -20 -9 0 -14 28 -33 40 -26 6 4
10 -4 10 -19 0 -17 -6 -26 -15 -26 -12 0 -13 -4 -6 -18 11 -20 15 -58 13 -130
-2 -49 -3 -52 -22 -42 -11 6 -20 17 -20 25 0 9 -9 15 -22 15 -18 0 -20 -2 -8
-10 12 -7 12 -12 2 -22 -6 -6 -12 -31 -12 -54 0 -25 -6 -47 -15 -54 -12 -10
-15 -39 -15 -141 0 -108 2 -129 15 -129 12 0 15 -16 15 -80 0 -73 -2 -80 -20
-80 -26 0 -26 -16 0 -32 17 -11 19 -20 13 -68 -3 -30 -11 -60 -17 -66 -6 -6
-20 -43 -31 -82 -14 -54 -23 -72 -37 -72 -21 0 -68 -45 -68 -65 0 -8 -8 -15
-17 -15 -10 0 -27 -7 -37 -15 -11 -8 -28 -15 -38 -15 -47 0 -27 69 43 145 29
31 37 45 25 45 -21 0 -21 16 0 24 11 4 15 14 12 31 -5 22 -2 25 23 25 28 0 29
1 29 55 0 61 -16 78 -52 56 -10 -6 -23 -9 -27 -7 -5 3 -17 -6 -27 -19 -10 -14
-23 -25 -28 -25 -5 0 -18 -7 -28 -17 -11 -9 -18 -11 -18 -5 0 7 -4 12 -10 12
-5 0 -10 -6 -10 -13 0 -19 -41 -36 -72 -30 -20 4 -32 -2 -48 -20 -14 -16 -31
-24 -48 -23 -35 2 -72 23 -72 41 0 14 -108 125 -122 125 -5 0 -8 7 -8 15 0 8
-6 15 -13 15 -8 0 -20 11 -27 25 -7 14 -20 25 -27 25 -7 0 -16 7 -19 15 -4 8
-13 15 -21 15 -8 0 -22 9 -31 20 -19 23 -118 47 -148 36 -18 -7 -18 -8 0 -21
10 -8 16 -20 14 -27 -3 -7 5 -20 17 -28 13 -8 35 -24 51 -34 16 -11 49 -36 74
-55 24 -20 61 -47 81 -61 70 -47 178 -151 172 -166 -3 -8 -10 -11 -15 -8 -6 4
-6 9 2 14 8 5 2 10 -19 15 -17 3 -31 10 -31 13 0 4 -15 8 -33 10 -17 1 -41 3
-51 5 -32 4 -74 -85 -44 -95 22 -8 16 -38 -13 -59 -16 -11 -29 -27 -29 -35 0
-8 -8 -15 -17 -16 -73 -6 -110 -7 -123 -2 -8 3 -60 8 -115 10 -55 3 -101 7
-103 9 -2 2 1 12 6 22 10 18 -3 54 -35 94 -7 8 -15 30 -17 48 -2 17 -7 35 -11
39 -4 4 -4 -3 -1 -15 4 -12 2 -24 -4 -28 -5 -3 -10 2 -10 11 0 16 -1 16 -16
-2 -8 -10 -3 5 13 34 17 31 40 59 57 67 34 17 96 20 96 4 0 -13 92 -4 129 14
32 15 40 54 14 64 -10 4 -21 11 -25 16 -11 17 -172 -8 -228 -35 -36 -18 -53
-22 -61 -14 -9 8 -10 6 -6 -7 4 -11 1 -20 -8 -23 -11 -5 -12 -11 -5 -24 7 -13
7 -21 0 -25 -5 -3 -11 0 -11 7 -5 49 -7 59 -13 65 -3 3 -6 -6 -6 -22 0 -23 -2
-26 -15 -15 -12 10 -15 9 -15 -8 0 -17 -5 -19 -32 -15 -29 4 -102 53 -81 53 4
0 3 4 -2 8 -28 20 -46 107 -26 128 5 5 12 45 15 89 4 44 10 114 16 155 5 41
12 104 15 140 3 36 13 105 21 154 11 68 12 97 4 122 -6 19 -9 38 -6 42 8 13
-16 132 -27 132 -5 0 -6 7 -3 16 8 22 -74 102 -102 98 -11 -2 -23 3 -26 11 -3
8 -12 15 -21 15 -10 0 -15 10 -15 34 0 23 -7 39 -19 48 -19 14 -19 15 -1 56
11 25 26 42 36 42 11 0 14 5 10 16 -4 9 -2 22 3 28 14 17 17 128 3 153 -8 15
-9 35 -3 70 6 28 6 50 0 53 -5 3 -2 16 6 28 13 18 20 20 43 11 15 -5 33 -18
40 -27 12 -16 14 -16 23 1 6 9 14 15 19 12 5 -3 11 8 15 25 4 16 10 30 14 30
4 0 13 17 19 37 9 29 9 39 -1 45 -9 6 -6 13 11 27 12 11 22 26 22 35 0 9 8 16
18 16 9 0 23 9 29 20 7 11 27 23 45 28 28 7 34 13 36 40 4 37 21 41 47 12 18
-20 18 -20 37 7 10 16 26 29 35 29 10 1 24 2 31 3 7 1 10 6 7 11 -3 6 5 10 18
10 14 0 27 6 30 13 3 8 19 13 40 13 23 -1 33 -5 30 -13z m1307 -123 c9 -16 8
-18 -5 -14 -8 4 -15 12 -15 20 0 20 7 17 20 -6z m-2783 -422 c-3 -8 -6 -5 -6
6 -1 11 2 17 5 13 3 -3 4 -12 1 -19z m1811 -123 c-2 -1 -16 -5 -32 -9 -25 -6
-28 -5 -17 7 6 8 21 13 32 10 11 -3 18 -7 17 -8z m92 0 c0 -2 -9 -3 -19 -2
-11 0 -18 5 -15 9 4 6 34 0 34 -7z m440 5 c0 -5 -7 -10 -15 -10 -8 0 -15 5
-15 10 0 6 7 10 15 10 8 0 15 -4 15 -10z m-612 -40 c-7 -11 -16 -20 -21 -20
-4 0 -21 -13 -37 -30 -29 -30 -53 -42 -31 -17 6 8 8 17 4 20 -3 4 -1 7 5 7 6
0 17 6 24 13 12 11 60 45 66 46 1 1 -3 -8 -10 -19z m132 4 c0 -2 -7 -4 -15 -4
-8 0 -15 4 -15 10 0 5 7 7 15 4 8 -4 15 -8 15 -10z m300 6 c13 -8 13 -10 -2
-10 -9 0 -20 5 -23 10 -8 13 5 13 25 0z m-395 -20 c-3 -5 -11 -10 -16 -10 -6
0 -7 5 -4 10 3 6 11 10 16 10 6 0 7 -4 4 -10z m15 -31 c-25 -16 -96 -52 -88
-44 13 14 83 54 93 55 6 0 3 -5 -5 -11z m80 -10 c-24 -10 -42 -32 -46 -57 -1
-6 2 -9 8 -6 6 4 14 1 18 -6 6 -9 14 -8 38 4 29 15 30 15 25 -4 -3 -11 -9 -20
-14 -20 -5 0 -9 -5 -9 -10 0 -6 10 -4 23 4 13 9 39 14 67 12 26 -2 48 1 52 8
6 8 8 7 8 -2 0 -7 5 -10 10 -7 12 8 12 8 -3 -36 -13 -38 -67 -91 -87 -87 -7 2
-15 -3 -18 -11 -3 -10 0 -12 11 -8 11 4 14 2 10 -9 -3 -7 -13 -14 -23 -14 -10
0 -20 -5 -22 -11 -2 -6 -25 -13 -52 -15 -26 -3 -56 -9 -66 -14 -10 -6 -33 -10
-50 -10 -22 0 -29 -4 -25 -12 4 -7 1 -6 -7 3 -18 22 -40 28 -60 17 -13 -6 -18
-5 -18 5 0 8 -9 17 -21 20 -16 4 -19 11 -14 26 7 24 2 26 -26 11 -11 -6 -19
-7 -19 -2 0 6 10 12 23 16 16 4 19 8 9 14 -10 7 -7 13 13 26 15 10 24 20 21
23 -3 4 12 17 34 30 22 13 40 28 40 34 0 5 11 7 24 3 16 -4 25 -1 30 12 9 23
0 30 -19 14 -9 -7 -15 -8 -15 -2 0 17 88 62 94 49 4 -8 10 -6 18 6 7 9 24 17
38 16 l25 0 -25 -10z m54 -14 c-4 -8 -11 -12 -16 -9 -6 4 -5 10 3 15 19 12 19
11 13 -6z m66 5 c0 -5 -5 -10 -11 -10 -5 0 -7 5 -4 10 3 6 8 10 11 10 2 0 4
-4 4 -10z m-450 -13 c0 -2 -12 -14 -27 -28 l-28 -24 24 28 c23 25 31 32 31 24z
m574 -12 c-4 -8 -11 -15 -16 -15 -6 0 -5 6 2 15 7 8 14 15 16 15 2 0 1 -7 -2
-15z m-230 -10 c-7 -17 -14 -18 -41 -8 -15 6 -13 9 12 14 17 4 31 7 32 8 1 0
0 -6 -3 -14z m96 -10 c-7 -9 -15 -13 -17 -11 -6 6 20 36 26 30 2 -2 -2 -10 -9
-19z m70 5 c-8 -6 -22 -10 -30 -10 -8 0 -4 6 10 13 27 15 44 12 20 -3z m-609
-21 c-5 -13 -10 -19 -10 -12 -1 15 10 45 15 40 3 -2 0 -15 -5 -28z m-111 -30
l-9 -44 1 40 c2 40 7 60 14 53 2 -3 -1 -24 -6 -49z m792 29 c-7 -7 -12 -8 -12
-2 0 14 12 26 19 19 2 -3 -1 -11 -7 -17z m28 -37 c0 -5 -7 -12 -16 -15 -14 -5
-15 -4 -4 9 14 17 20 19 20 6z m210 -12 c0 -14 -16 -11 -29 5 -10 12 -8 13 8
9 12 -3 21 -9 21 -14z m407 -31 c-3 -8 -6 -5 -6 6 -1 11 2 17 5 13 3 -3 4 -12
1 -19z m-927 -188 c12 -8 10 -10 -10 -11 -14 -1 -31 -2 -37 -2 -8 1 -13 -11
-12 -26 0 -23 1 -24 9 -6 5 11 9 14 9 8 1 -7 9 -13 19 -13 16 -1 16 -1 -1 -11
-30 -18 -51 -7 -52 26 0 39 39 58 75 35z m-53 -116 c-3 -3 -12 -4 -19 -1 -8 3
-5 6 6 6 11 1 17 -2 13 -5z m-27 -24 c0 -5 -7 -10 -15 -10 -8 0 -15 5 -15 10
0 6 7 10 15 10 8 0 15 -4 15 -10z m-1099 -51 c13 -11 19 -18 12 -14 -7 3 -28
6 -47 7 -29 1 -34 4 -25 15 16 18 33 16 60 -8z m966 -15 c-3 -3 -12 -4 -19 -1
-8 3 -5 6 6 6 11 1 17 -2 13 -5z m303 -4 c0 -5 -5 -10 -11 -10 -5 0 -7 5 -4
10 3 6 8 10 11 10 2 0 4 -4 4 -10z m-30 -19 c0 -5 -19 -13 -42 -19 -33 -9 -46
-8 -56 1 -10 11 -6 12 22 9 18 -2 37 1 40 7 8 13 36 15 36 2z m-1307 -27 c11
-11 -3 -24 -18 -18 -8 4 -12 10 -9 15 6 11 18 12 27 3z m1350 -35 c-16 -16
-125 -38 -169 -35 -21 2 -52 5 -69 6 -16 2 8 7 55 11 47 5 105 13 130 18 64
12 65 12 53 0z m-1228 -9 c3 -6 -4 -14 -17 -19 -28 -10 -30 -9 -22 13 7 18 29
21 39 6z m55 6 c0 -2 -7 -6 -15 -10 -8 -3 -15 -1 -15 4 0 6 7 10 15 10 8 0 15
-2 15 -4z m-86 -68 c-3 -4 -12 -8 -20 -8 -8 0 -14 4 -14 8 0 4 9 8 19 8 11 0
17 -4 15 -8z m2273 -125 c-9 -15 -27 -39 -41 -52 -22 -21 -25 -31 -20 -60 l5
-36 -22 34 -23 34 22 15 c12 8 22 20 22 27 0 6 11 18 25 25 14 7 25 21 25 30
0 20 13 35 18 21 2 -5 -3 -22 -11 -38z m20 -299 c27 -24 27 -25 2 -10 -14 9
-28 13 -32 10 -3 -3 -16 -2 -29 2 -22 7 -22 7 -3 15 30 11 32 11 62 -17z
m-2337 -44 c0 -5 -4 -10 -10 -10 -5 0 -10 5 -10 10 0 6 5 10 10 10 6 0 10 -4
10 -10z m330 -213 c0 -5 -4 -5 -10 -2 -5 3 -10 14 -10 23 0 15 2 15 10 2 5 -8
10 -19 10 -23z m202 -3 c-7 -12 -11 -13 -17 -4 -4 7 -2 16 6 21 18 11 23 4 11
-17z m1498 -41 c0 -28 -3 -34 -10 -23 -13 20 -13 60 0 60 6 0 10 -17 10 -37z
m-2481 -100 c49 -194 97 -304 184 -420 21 -29 36 -56 33 -62 -13 -20 -100 -32
-151 -21 -94 21 -167 84 -218 190 -30 60 -32 72 -32 170 0 95 3 110 27 156 27
52 88 114 112 114 9 0 24 -43 45 -127z m801 106 c0 -5 -4 -9 -10 -9 -5 0 -10
7 -10 16 0 8 5 12 10 9 6 -3 10 -10 10 -16z m964 12 c4 -5 0 -12 -6 -15 -7 -3
-3 -3 10 0 20 5 22 2 22 -35 0 -23 -4 -41 -10 -41 -5 0 -10 9 -10 21 0 12 -4
17 -11 14 -6 -4 -8 -13 -5 -21 3 -8 -1 -14 -8 -14 -8 0 -16 7 -20 15 -3 8 -12
15 -21 15 -8 0 -15 7 -15 15 0 8 7 15 15 15 8 0 15 9 15 20 0 21 33 29 44 11z
m-1950 -66 c-4 -8 -11 -15 -16 -15 -6 0 -5 6 2 15 7 8 14 15 16 15 2 0 1 -7
-2 -15z m2675 -41 c2 -10 11 -37 21 -59 10 -22 21 -59 25 -82 4 -24 11 -45 16
-49 5 -3 9 -9 9 -15 0 -17 -15 -9 -32 19 -10 15 -18 22 -18 16 0 -6 16 -29 35
-51 19 -22 31 -44 27 -48 -4 -5 -2 -5 4 -2 6 4 25 -9 43 -28 41 -45 17 -46
-35 -1 -79 67 -140 224 -125 319 2 16 26 0 30 -19z m-57 -34 c2 -25 -1 -40 -8
-40 -6 0 -10 10 -8 23 1 12 3 30 3 40 2 31 9 18 13 -23z m498 -87 c-8 -14 -10
-9 -8 27 2 59 12 75 16 28 2 -21 -2 -46 -8 -55z m-496 -12 c-4 -17 -9 -30 -11
-27 -3 2 -2 19 2 36 4 17 9 30 11 27 2 -2 1 -18 -2 -36z m-2636 -116 c5 -33 8
-62 7 -63 -2 -2 -13 14 -24 37 -21 40 -27 103 -14 138 8 20 12 4 31 -112z
m1842 76 c0 -16 7 -37 16 -45 8 -9 20 -31 25 -48 11 -41 12 -118 0 -118 -5 0
-11 -25 -13 -55 -4 -42 -11 -62 -31 -83 -16 -18 -26 -41 -29 -67 -1 -22 0 -38
3 -35 9 7 39 -20 39 -36 0 -21 -43 -60 -62 -56 -9 2 -19 -2 -23 -7 -4 -7 4
-11 19 -11 14 0 26 -3 26 -6 0 -14 -53 -55 -65 -50 -17 6 -30 -10 -39 -46 -3
-16 -13 -28 -22 -28 -8 0 -17 -7 -21 -16 -3 -9 -13 -14 -25 -11 -11 3 -27 -3
-38 -16 -11 -11 -20 -17 -20 -13 0 4 -7 0 -16 -8 -8 -9 -28 -16 -44 -16 -16 0
-32 -4 -35 -10 -8 -14 -92 -13 -101 1 -4 6 -21 9 -43 5 -20 -3 -30 -3 -23 0 9
4 7 11 -9 25 -25 22 -22 21 -43 13 -9 -3 -16 -12 -16 -20 0 -16 -16 -19 -25
-4 -3 5 -20 13 -37 18 -26 6 -33 15 -44 52 -11 37 -11 49 2 76 8 17 14 35 13
40 -3 20 2 28 10 15 8 -12 12 -12 25 -2 9 8 16 20 16 28 0 12 7 14 30 10 17
-4 40 0 57 8 16 9 30 11 33 5 3 -6 24 3 46 18 21 16 60 36 86 46 26 10 50 25
53 36 3 10 12 21 20 24 8 3 12 12 9 21 -4 10 0 15 10 15 9 0 16 6 16 14 0 8
11 23 25 34 14 11 25 25 25 31 0 6 6 11 13 11 14 0 67 83 67 105 0 8 6 18 14
22 18 10 31 53 16 53 -6 0 -13 -6 -16 -14 -9 -24 -33 -27 -26 -4 7 27 40 60
52 53 6 -4 10 -1 10 6 0 17 52 66 73 68 12 1 17 -7 17 -28z m807 -3 c-3 -8 -6
-5 -6 6 -1 11 2 17 5 13 3 -3 4 -12 1 -19z m-1217 8 c0 -3 -4 -8 -10 -11 -5
-3 -10 -1 -10 4 0 6 5 11 10 11 6 0 10 -2 10 -4z m1655 -66 c-35 -70 -41 -60
-7 12 15 31 28 53 30 48 2 -5 -9 -32 -23 -60z m46 6 c-22 -51 -69 -116 -82
-116 -5 0 6 20 25 45 19 24 40 61 46 82 16 49 23 60 28 45 2 -6 -6 -31 -17
-56z m-1782 31 c5 -13 17 -29 27 -37 11 -9 15 -10 10 -2 -15 26 3 50 36 47 18
-1 34 -7 36 -14 2 -6 10 -11 18 -11 8 0 14 -6 14 -14 0 -19 -67 -49 -95 -42
-18 5 -25 1 -30 -14 -3 -11 -14 -20 -23 -21 -9 -1 -37 -3 -61 -5 -50 -4 -61 4
-61 52 0 20 6 34 16 38 9 4 14 10 10 14 -4 4 12 12 36 18 59 16 57 17 67 -9z
m362 14 c-7 -5 -11 -13 -8 -17 3 -5 -7 -10 -21 -11 l-26 -1 24 19 c14 10 30
19 35 19 6 0 4 -4 -4 -9z m1121 -76 c11 -20 11 -20 -12 0 -12 11 -29 33 -37
50 l-15 30 26 -30 c15 -16 31 -39 38 -50z m-1887 55 c3 -5 1 -10 -4 -10 -6 0
-11 5 -11 10 0 6 2 10 4 10 3 0 8 -4 11 -10z m638 2 c2 7 7 10 11 7 3 -3 0
-13 -7 -23 -9 -13 -20 -16 -40 -11 -15 4 -27 12 -27 17 0 6 7 8 15 4 8 -3 15
0 15 6 0 7 4 7 14 -1 11 -9 15 -9 19 1z m-413 -13 c0 -5 4 -8 8 -5 16 9 34
-61 22 -84 -19 -36 -140 -25 -140 14 0 5 7 1 15 -10 14 -17 14 -16 9 23 -6 40
-5 42 22 49 l29 8 -25 7 c-20 6 -17 7 18 8 23 1 42 -4 42 -10z m-132 -18 c3
-8 -1 -12 -9 -9 -7 2 -15 10 -17 17 -3 8 1 12 9 9 7 -2 15 -10 17 -17z m2012
-8 c0 -5 -10 -19 -21 -33 l-21 -25 18 33 c18 32 24 38 24 25z m-1476 -31 c3 7
4 3 2 -10 -4 -19 -1 -22 12 -17 14 5 15 4 5 -6 -10 -10 -16 -9 -30 7 -10 11
-19 26 -21 34 -2 11 2 10 12 -3 11 -14 15 -15 20 -5z m1359 -42 c37 0 48 -3
37 -10 -8 -5 -25 -10 -38 -10 -33 0 -94 28 -87 40 4 6 12 5 21 -5 10 -9 35
-15 67 -15z m97 0 c-6 -11 -20 -25 -32 -31 -18 -9 -16 -5 7 19 35 37 39 39 25
12z m-1497 -9 c-40 -42 -223 -110 -223 -82 0 6 5 11 10 11 6 0 10 9 10 19 0
10 7 21 15 25 18 7 20 -5 3 -22 -7 -7 -8 -12 -4 -12 5 0 19 12 32 26 13 14 29
22 34 19 6 -3 10 -2 10 2 0 14 50 31 93 32 37 1 37 0 20 -18z m1350 -28 c-7
-2 -19 -2 -25 0 -7 3 -2 5 12 5 14 0 19 -2 13 -5z m-513 -639 c0 -8 -5 -12
-10 -9 -6 4 -8 11 -5 16 9 14 15 11 15 -7z m210 -53 c0 -9 -9 -22 -20 -29 -27
-17 -25 -32 5 -32 22 0 25 -4 25 -37 0 -22 9 -49 20 -63 23 -29 25 -51 8 -69
-11 -10 -9 -11 7 -5 16 6 18 5 9 -7 -6 -8 -14 -26 -18 -41 -5 -21 -10 -26 -23
-21 -15 6 -16 5 -3 -9 14 -15 21 -11 79 45 42 40 53 48 31 22 -93 -112 -139
-153 -210 -191 -100 -52 -211 -136 -327 -248 -24 -22 -43 -37 -43 -33 0 4 14
20 31 36 17 17 28 35 24 40 -4 7 0 8 11 4 13 -5 15 -3 9 7 -5 8 -4 11 2 7 15
-9 57 39 48 54 -5 8 -4 10 3 5 6 -4 20 -2 30 3 21 11 24 47 6 59 -6 4 -23 30
-38 59 -14 29 -34 56 -43 62 -10 5 -14 13 -9 18 5 4 11 2 13 -4 3 -7 11 -13
18 -13 10 0 14 22 17 84 2 46 0 82 -4 79 -5 -2 -8 12 -8 32 0 51 53 105 103
105 20 0 38 -6 41 -12 3 -9 11 -6 24 10 11 12 27 22 36 22 12 0 16 10 16 40
l0 40 50 0 c30 0 50 4 50 11 0 8 5 8 15 -1 8 -7 15 -20 15 -29z m183 -176
c-10 -13 -22 -25 -27 -25 -5 0 1 11 14 25 30 32 36 32 13 0z m-83 -48 c0 -2
-11 -17 -25 -33 -14 -16 -25 -24 -25 -18 0 5 9 20 20 32 19 20 30 27 30 19z
m-470 -87 c0 -5 -4 -10 -10 -10 -5 0 -10 5 -10 10 0 6 5 10 10 10 6 0 10 -4
10 -10z m20 -274 c0 -3 -4 -8 -10 -11 -5 -3 -10 -1 -10 4 0 6 5 11 10 11 6 0
10 -2 10 -4z m-1606 -141 c-59 -77 -88 -107 -67 -71 17 29 118 155 125 156 4
0 -22 -38 -58 -85z m1486 1 c0 -2 -7 -9 -15 -16 -13 -11 -14 -10 -9 4 5 14 24
23 24 12z m-47 -41 c-3 -9 -8 -14 -10 -11 -3 3 -2 9 2 15 9 16 15 13 8 -4z
m-1033 -576 c0 -5 -10 -9 -22 -9 -18 0 -20 2 -8 10 8 5 11 12 7 16 -3 4 -13 1
-22 -6 -21 -18 -20 7 1 32 16 17 17 17 30 -8 8 -15 14 -30 14 -35z m1405
-1118 c3 -6 -17 -135 -44 -288 -116 -635 -115 -631 -165 -732 -84 -166 -277
-310 -529 -392 -98 -32 -104 -32 -192 13 -149 76 -265 185 -318 298 -27 58
-31 75 -30 155 0 84 6 109 87 374 48 156 103 345 122 419 19 75 37 138 38 140
16 15 1021 28 1031 13z m-2825 -490 c0 -5 -36 -30 -81 -56 -190 -110 -252
-157 -394 -303 -127 -129 -155 -151 -155 -119 0 6 3 7 7 4 9 -10 44 24 36 36
-3 5 -1 7 5 3 10 -6 52 43 52 61 0 4 -5 1 -10 -7 -7 -12 -11 -13 -22 -2 -11
11 -10 15 5 23 26 15 21 32 -8 27 -34 -7 -32 9 3 17 15 3 40 17 56 31 30 28
43 27 28 -3 -6 -11 -7 -24 -3 -31 4 -7 13 1 23 23 9 20 11 38 6 43 -15 15 160
127 305 197 140 68 147 70 147 56z m-560 -406 c0 -8 -4 -15 -9 -15 -5 0 -11 7
-15 15 -3 9 0 15 9 15 8 0 15 -7 15 -15z m-70 -105 c0 -5 -4 -10 -9 -10 -6 0
-13 5 -16 10 -3 6 1 10 9 10 9 0 16 -4 16 -10z m6253 -2567 c-13 -2 -33 -2
-45 0 -13 2 -3 4 22 4 25 0 35 -2 23 -4z m-51 -78 c7 -9 18 -21 24 -28 17 -20
33 -74 27 -96 -3 -12 1 -28 8 -37 11 -14 15 -13 31 8 l18 23 20 -25 c13 -17
20 -41 20 -72 0 -28 5 -48 13 -50 18 -7 17 -305 -2 -317 -10 -7 -13 -42 -12
-165 l2 -156 -41 0 c-29 0 -40 4 -40 15 0 18 -16 20 -22 3 -2 -7 -1 -31 3 -53
3 -22 7 -30 8 -18 1 16 6 21 16 17 24 -9 18 -20 -20 -38 -20 -10 -33 -21 -30
-26 3 -5 -4 -14 -15 -20 -16 -9 -20 -21 -20 -65 0 -42 3 -55 15 -55 8 0 15 -7
15 -15 0 -9 -7 -18 -15 -21 -10 -4 -15 -20 -15 -48 0 -38 -3 -43 -33 -54 -31
-11 -32 -14 -29 -53 3 -28 0 -44 -9 -50 -11 -6 -11 -11 -1 -21 18 -18 15 -42
-9 -85 -12 -21 -23 -47 -24 -58 -1 -11 -3 -23 -4 -27 0 -5 -8 -8 -17 -8 -11 0
-14 -8 -12 -24 2 -16 -6 -32 -23 -49 -24 -21 -26 -29 -21 -73 2 -27 9 -52 15
-55 6 -4 5 -9 -1 -13 -6 -3 -13 -2 -17 4 -11 17 -42 11 -48 -10 -3 -11 -1 -37
5 -57 5 -21 12 -48 15 -60 3 -13 11 -23 19 -23 8 0 11 -6 8 -15 -4 -8 -13 -15
-20 -15 -8 0 -17 -13 -20 -30 -9 -42 -27 -25 -22 21 2 22 0 39 -4 39 -5 0 -8
-17 -8 -37 0 -46 -6 -56 -45 -74 -28 -14 -30 -17 -27 -66 4 -56 -10 -93 -35
-93 -12 0 -14 -7 -10 -36 8 -47 -2 -94 -19 -94 -8 0 -14 -10 -14 -25 0 -29 -7
-31 -32 -8 -17 15 -19 15 -39 -3 l-20 -18 21 -8 c18 -7 19 -10 8 -28 -9 -15
-10 -25 -2 -37 13 -21 -4 -76 -22 -69 -15 6 -48 -29 -40 -42 4 -6 -3 -8 -15
-5 -29 8 -42 49 -32 98 7 33 12 40 33 41 45 2 50 4 50 20 0 9 -8 18 -18 21
-10 2 -24 14 -31 25 -11 17 -10 22 1 29 10 7 8 9 -7 10 -11 0 -15 3 -9 5 7 3
10 13 7 23 -4 15 1 18 29 16 40 -3 49 1 41 21 -3 9 -12 12 -24 9 -27 -9 -24 4
4 14 14 5 25 4 29 -3 4 -6 8 9 8 34 0 32 -3 41 -10 30 -5 -8 -12 -12 -15 -8
-9 8 5 98 15 98 4 0 4 16 0 36 -9 38 -2 62 26 102 16 21 16 22 -11 22 l-27 0
23 19 c23 19 24 19 5 40 -19 21 -19 21 3 21 20 0 21 5 20 54 -2 41 3 61 19 84
12 16 22 41 22 55 0 14 7 32 15 40 10 11 14 39 14 103 0 108 4 142 19 171 7
12 12 30 12 41 0 10 11 29 25 42 14 13 25 31 24 40 -1 8 1 22 4 30 3 8 10 35
16 60 8 38 10 42 16 23 12 -37 28 -27 21 11 -4 19 -2 37 3 40 5 3 12 42 16 86
4 44 10 80 14 80 3 0 12 19 19 41 11 36 11 44 -3 59 -22 24 -19 43 5 37 25 -6
53 20 45 41 -9 25 -7 235 4 271 10 32 9 33 -14 29 -13 -3 -30 -1 -37 3 -10 7
-10 9 1 9 25 0 51 32 51 62 0 37 16 68 35 68 8 0 15 5 15 10 0 6 -4 10 -9 10
-5 0 -12 11 -15 24 -3 13 -9 31 -12 40 -5 12 0 16 17 16 21 0 22 1 5 13 -16
12 -16 14 -2 26 15 12 14 15 -5 32 -19 17 -20 19 -4 49 9 18 25 35 36 37 10 3
19 11 19 17 0 16 21 36 37 36 7 0 18 -7 25 -15z m148 -95 c0 -13 -7 -20 -20
-20 -23 0 -26 10 -8 28 18 18 28 15 28 -8z m-300 -85 c-9 -11 -9 -15 -1 -15 9
0 9 -6 -1 -22 l-12 -23 -6 25 c-8 32 -2 50 17 50 13 0 13 -3 3 -15z m217 -887
c-3 -8 -6 -5 -6 6 -1 11 2 17 5 13 3 -3 4 -12 1 -19z m-97 -258 c0 -5 -4 -10
-10 -10 -5 0 -10 5 -10 10 0 6 5 10 10 10 6 0 10 -4 10 -10z m-353 -1046 c-3
-3 -12 -4 -19 -1 -8 3 -5 6 6 6 11 1 17 -2 13 -5z m-267 -214 c0 -5 -5 -10
-11 -10 -5 0 -7 5 -4 10 3 6 8 10 11 10 2 0 4 -4 4 -10z m60 -60 c0 -36 -12
-38 -34 -5 -21 32 -20 35 9 35 21 0 25 -5 25 -30z m-40 -120 c0 -5 -2 -10 -4
-10 -2 0 -11 -3 -19 -6 -8 -3 -17 2 -20 10 -5 12 0 16 18 16 14 0 25 -4 25
-10z m-120 -239 c0 -6 -4 -13 -10 -16 -5 -3 -10 1 -10 9 0 9 5 16 10 16 6 0
10 -4 10 -9z m-53 -166 c3 -20 3 -20 -6 0 -7 17 -10 13 -19 -25 l-10 -45 -1
48 c-1 41 2 48 16 45 10 -2 19 -12 20 -23z m-45 -112 c2 -26 -1 -47 -8 -51
-20 -12 -44 -70 -44 -105 0 -37 -18 -52 -51 -42 -14 5 -19 1 -19 -13 0 -11 6
-23 13 -25 9 -4 9 -8 -2 -15 -9 -6 -12 -25 -10 -59 l4 -49 -40 7 c-43 8 -55 5
-55 -15 0 -7 -8 -21 -19 -30 -16 -15 -19 -15 -24 -2 -10 25 1 59 28 83 14 13
25 28 25 33 0 6 7 10 15 10 8 0 15 7 15 16 0 9 7 22 16 28 8 7 18 36 23 69 7
50 21 90 21 59 0 -18 57 -15 64 4 3 9 6 40 6 70 0 53 -1 55 -22 48 -19 -6 -21
-5 -11 8 7 8 26 15 42 15 27 0 29 -3 33 -44z m-125 -55 c-3 -8 -6 -5 -6 6 -1
11 2 17 5 13 3 -3 4 -12 1 -19z m63 -21 c0 -16 -6 -23 -20 -23 -14 0 -20 7
-20 23 0 16 6 23 20 23 14 0 20 -7 20 -23z m-163 -393 c3 -8 17 -20 32 -25 23
-9 24 -11 9 -20 -10 -6 -18 -17 -18 -24 0 -11 -12 -15 -40 -15 -36 0 -40 2
-40 25 0 28 26 75 41 75 6 0 12 -7 16 -16z m-39 -136 c16 -16 15 -43 -3 -58
-10 -8 -15 -30 -15 -65 0 -35 -5 -57 -15 -65 -18 -15 -20 -51 -3 -68 9 -9 5
-17 -16 -33 -23 -18 -27 -28 -25 -63 1 -22 -3 -51 -9 -63 -7 -12 -9 -29 -6
-37 5 -13 -1 -16 -26 -16 -23 0 -33 -5 -37 -19 -6 -23 -54 -45 -80 -37 -11 3
-28 -1 -39 -9 -31 -24 -44 -18 -44 20 0 45 23 92 50 100 11 4 18 11 15 16 -4
5 -1 9 4 9 6 0 11 7 11 15 0 8 5 15 11 15 6 0 9 11 7 24 -1 13 3 30 10 39 7 8
11 21 10 28 -2 8 5 14 17 14 16 0 21 11 31 69 6 37 17 72 25 77 8 4 14 14 15
21 3 33 5 38 18 38 8 0 25 13 38 29 25 33 38 37 56 19z m-278 -615 c0 -8 14
-13 34 -13 34 0 35 0 30 -37 -9 -62 -11 -65 -33 -51 -11 7 -24 9 -28 4 -4 -4
0 -12 10 -17 23 -13 22 -56 -3 -69 -37 -20 -68 -59 -63 -78 2 -11 0 -23 -6
-26 -6 -4 -11 -19 -11 -33 0 -23 -3 -25 -34 -21 -33 4 -33 3 -23 -25 5 -16 16
-31 23 -34 22 -8 17 -51 -6 -58 -11 -3 -21 -12 -21 -18 -1 -7 -5 6 -9 28 -7
38 -8 36 -9 -20 -1 -120 -11 -158 -52 -198 -11 -10 -19 -31 -19 -47 0 -20 -6
-31 -20 -35 -11 -3 -20 -10 -20 -14 0 -14 -52 -32 -72 -25 -14 4 -16 9 -8 19
12 15 7 19 -34 29 -26 6 -28 5 -16 -9 17 -20 4 -33 -18 -18 -11 7 -16 22 -15
43 2 40 8 46 29 29 15 -13 17 -11 12 17 -3 25 -1 31 10 26 8 -3 19 2 24 11 5
10 18 17 28 17 27 0 25 18 -2 22 -17 2 -23 10 -25 32 -1 16 -4 35 -7 43 -3 7
-1 36 5 63 9 43 14 50 34 50 18 0 22 4 18 20 -4 13 1 26 13 34 14 11 18 24 15
59 -3 47 6 61 33 51 9 -3 16 -22 19 -47 2 -23 3 -5 3 40 -1 44 -4 76 -7 71 -4
-7 -9 -7 -13 0 -3 6 7 20 24 32 16 12 30 30 30 40 0 10 5 22 10 25 6 4 8 10 5
15 -3 5 6 17 20 28 13 11 21 22 18 26 -5 5 47 11 70 7 4 -1 10 6 12 14 16 51
14 49 30 29 8 -10 15 -25 15 -31z m325 -694 c-8 -28 -17 -54 -21 -58 -3 -3 -4
3 -1 14 3 11 9 34 13 50 7 31 13 45 19 45 2 0 -3 -23 -10 -51z m-31 -103 c-3
-15 -8 -25 -11 -23 -2 3 -1 17 3 31 3 15 8 25 11 23 2 -3 1 -17 -3 -31z
m-1257 -92 c-3 -3 -12 -4 -19 -1 -8 3 -5 6 6 6 11 1 17 -2 13 -5z m1204 -51
c-10 -21 -27 -47 -35 -58 -9 -11 -2 8 16 42 18 34 34 60 36 58 2 -2 -6 -20
-17 -42z m-1341 1 c0 -13 3 -14 15 -4 16 14 35 6 35 -16 0 -12 18 -19 42 -16
3 1 14 -15 23 -35 13 -28 14 -37 5 -43 -7 -4 -10 -15 -7 -24 7 -18 -73 -89
-95 -85 -7 2 -23 -2 -35 -9 -17 -9 -28 -9 -47 -1 -33 15 -60 5 -53 -20 5 -22
-20 -64 -33 -56 -5 3 -11 1 -15 -5 -3 -5 -20 -10 -36 -10 -26 0 -76 -29 -52
-30 4 -1 -4 -8 -19 -16 -16 -8 -28 -19 -28 -24 0 -6 -4 -10 -10 -10 -5 0 -10
7 -10 15 0 19 -76 21 -83 3 -2 -7 -8 -10 -12 -6 -4 4 -2 14 5 23 11 13 8 15
-16 17 -16 0 -42 2 -59 3 -16 1 -42 -4 -57 -12 -36 -17 -65 -16 -72 3 -3 9 -6
38 -6 65 0 42 5 54 28 76 l27 26 -30 -7 c-23 -6 -27 -5 -19 4 6 6 31 14 55 17
35 4 41 2 29 -7 -12 -10 -10 -11 10 -6 14 3 34 6 45 7 16 1 16 2 -5 8 -23 7
-22 9 19 21 30 10 56 28 84 61 36 42 42 46 53 31 10 -14 16 -14 38 -4 14 6 26
16 26 21 0 5 15 7 34 4 19 -3 36 -1 40 6 4 6 24 11 44 12 20 0 31 3 24 6 -17
7 -5 23 19 23 19 0 26 -14 12 -23 -5 -2 -2 -2 5 0 8 1 20 3 28 3 8 0 14 7 14
15 0 8 9 15 20 15 12 0 20 -7 20 -16z m-20 -321 c1 -37 26 -55 72 -53 94 5
110 2 106 -22 -2 -18 -13 -25 -45 -32 -31 -7 -43 -15 -48 -33 -6 -27 -23 -29
-51 -8 -10 8 -36 15 -56 15 -37 0 -38 -1 -38 -35 0 -31 -3 -35 -25 -35 -17 0
-25 5 -25 18 0 21 -29 64 -30 44 0 -19 -45 -11 -45 8 0 8 10 16 23 18 12 2 22
8 22 13 0 12 -7 11 -31 -2 -19 -9 -20 -8 -17 18 3 28 4 28 63 25 57 -3 61 -2
73 24 6 16 12 34 12 41 0 20 40 16 40 -4z m100 -203 c0 -6 8 -5 20 2 37 23 77
-24 50 -57 -19 -23 -42 -18 -77 19 -38 39 -40 46 -13 46 11 0 20 -5 20 -10z
m-5924 -828 c3 -25 4 -25 17 -9 14 20 54 30 63 16 3 -6 19 -7 35 -4 34 8 38
-6 10 -34 -20 -20 -20 -20 0 -26 24 -8 25 -35 1 -35 -9 0 -23 -9 -30 -20 -7
-11 -18 -20 -25 -20 -19 0 -14 37 6 53 11 8 14 21 10 40 -6 31 -9 32 -56 12
-46 -19 -61 -19 -53 1 5 12 0 15 -19 12 -13 -2 -24 2 -25 7 0 6 4 10 9 10 5 0
13 4 17 8 11 11 39 4 40 -11z m250 -60 c-8 -9 -19 -13 -22 -9 -10 9 16 38 28
31 6 -4 4 -13 -6 -22z m-302 -7 c-4 -8 -10 -13 -15 -10 -4 3 -6 12 -3 20 4 8
10 13 15 10 4 -3 6 -12 3 -20z m99 13 c5 -18 -3 -48 -14 -48 -5 0 -9 6 -9 13
0 7 -7 4 -15 -7 -14 -18 -15 -18 -22 -1 -4 12 -2 20 6 23 7 2 17 10 24 18 15
17 24 17 30 2z m-118 -38 c3 -5 1 -10 -4 -10 -6 0 -11 5 -11 10 0 6 2 10 4 10
3 0 8 -4 11 -10z m34 -14 c7 -8 8 -17 3 -20 -6 -3 -12 3 -15 14 -6 24 -4 25
12 6z m205 -1 c-7 -16 -54 -21 -54 -6 0 5 10 12 23 14 12 2 25 5 29 6 4 0 5
-6 2 -14z m-77 -97 c-3 -8 -6 -5 -6 6 -1 11 2 17 5 13 3 -3 4 -12 1 -19z m777
-447 c13 -5 16 -10 8 -15 -14 -8 -62 3 -62 15 0 11 27 11 54 0z"/>
<path d="M13280 19174 c0 -8 5 -12 10 -9 6 4 8 11 5 16 -9 14 -15 11 -15 -7z"/>
<path d="M14185 17290 c-3 -5 -1 -10 4 -10 6 0 11 5 11 10 0 6 -2 10 -4 10 -3
0 -8 -4 -11 -10z"/>
<path d="M13528 17198 c5 -5 16 -8 23 -6 8 3 3 7 -10 11 -17 4 -21 3 -13 -5z"/>
<path d="M13669 18438 c0 -2 -2 -11 -4 -21 -3 -15 -1 -16 11 -6 16 13 19 29 4
29 -5 0 -10 -1 -11 -2z"/>
<path d="M13845 18354 c-20 -15 -20 -16 4 -12 14 2 26 9 29 16 5 16 -9 15 -33
-4z"/>
<path d="M13885 18330 c-3 -5 1 -10 9 -10 9 0 16 5 16 10 0 6 -4 10 -9 10 -6
0 -13 -4 -16 -10z"/>
<path d="M13120 16138 c0 -19 2 -20 10 -8 8 13 10 12 10 -3 0 -10 5 -15 10
-12 19 12 11 45 -10 45 -14 0 -20 -7 -20 -22z"/>
<path d="M14313 15678 c16 -10 87 -10 87 0 0 4 -22 7 -49 7 -27 0 -44 -3 -38
-7z"/>
<path d="M14405 15589 c-11 -16 -1 -19 13 -3 7 8 8 14 3 14 -5 0 -13 -5 -16
-11z"/>
<path d="M14426 15535 c-9 -26 -7 -32 5 -12 6 10 9 21 6 23 -2 3 -7 -2 -11
-11z"/>
<path d="M14325 15511 c-6 -11 13 -26 22 -17 4 3 0 6 -8 6 -11 0 -11 2 1 10 9
6 10 10 3 10 -6 0 -14 -4 -18 -9z"/>
<path d="M14365 15510 c-3 -6 1 -7 9 -4 18 7 21 14 7 14 -6 0 -13 -4 -16 -10z"/>
<path d="M14163 15425 c0 -7 9 -11 21 -8 21 4 21 4 2 -11 -13 -10 -15 -16 -7
-16 11 0 11 -3 1 -15 -17 -21 -7 -19 18 4 12 10 18 22 14 26 -4 5 0 6 8 3 8
-3 21 1 28 9 11 12 10 13 -10 8 -13 -3 -35 -2 -49 4 -19 7 -26 6 -26 -4z"/>
<path d="M14076 13412 c-4 -7 -20 -12 -36 -12 -16 0 -35 -7 -43 -15 -8 -7 -26
-17 -40 -20 -47 -12 -74 -79 -42 -105 8 -7 49 -16 91 -21 92 -10 116 -17 111
-32 -6 -20 -43 -19 -112 2 -84 26 -121 26 -220 1 -43 -11 -90 -20 -105 -20
-14 0 -31 -5 -36 -10 -7 -7 -11 -6 -11 5 0 8 6 15 13 15 11 0 27 37 29 67 0 6
4 15 8 19 12 12 8 46 -5 38 -7 -5 -9 -2 -5 9 4 11 2 14 -9 10 -9 -3 -14 1 -14
11 0 13 -4 15 -19 6 -11 -5 -27 -7 -35 -4 -9 4 -16 1 -16 -6 0 -9 -3 -10 -13
-1 -14 11 -37 -3 -37 -21 0 -9 -11 -24 -42 -58 -10 -11 -15 -26 -12 -35 4 -8
1 -15 -6 -15 -7 0 -9 -8 -5 -19 9 -28 -9 -34 -49 -14 -29 13 -36 22 -36 45 0
29 -17 38 -26 15 -3 -9 -16 -12 -35 -9 -28 4 -30 3 -24 -21 5 -18 2 -28 -11
-35 -28 -15 -7 -31 33 -25 26 4 34 3 29 -5 -4 -7 -2 -12 4 -12 6 0 16 -5 23
-10 7 -6 21 -17 32 -25 19 -13 17 -14 -21 -15 -33 0 -43 4 -47 20 -6 23 -37
27 -37 5 0 -8 -11 -17 -25 -21 -27 -7 -35 -34 -9 -34 11 0 14 -6 9 -20 -7 -23
-3 -24 42 -8 27 10 36 10 42 0 4 -7 24 -13 43 -14 23 -1 35 -5 32 -13 -7 -17
136 -1 177 21 19 9 57 34 85 55 59 45 133 74 148 59 7 -7 6 -10 -3 -10 -8 0
-11 -7 -8 -20 3 -13 0 -20 -9 -20 -8 0 -14 5 -14 10 0 6 -14 10 -32 10 -17 0
-29 -3 -25 -6 3 -3 -6 -17 -21 -30 -26 -22 -26 -23 -5 -24 17 0 20 -4 15 -22
-4 -18 -2 -20 14 -13 10 4 48 9 84 10 36 0 76 6 90 12 14 7 38 14 53 18 20 4
27 10 23 20 -6 16 19 20 48 9 26 -10 18 -23 -16 -26 -26 -2 -33 -8 -34 -24 -1
-12 -5 -27 -9 -34 -6 -10 -4 -12 8 -7 10 4 20 0 25 -8 7 -13 11 -13 30 1 12 8
22 22 22 31 0 9 6 13 15 9 8 -3 15 -1 15 4 0 6 7 10 15 10 8 0 15 5 15 10 0 6
6 10 13 10 17 0 42 44 33 58 -3 6 -38 10 -76 10 -50 -1 -77 4 -95 16 -36 23
-28 28 20 12 40 -14 97 -6 103 14 2 6 7 8 12 5 5 -3 12 4 15 16 5 14 1 27 -12
40 -18 19 -100 39 -157 39 -18 0 -41 6 -52 14 -18 14 -18 15 -1 33 18 17 19
17 34 -4 30 -44 89 -26 122 37 26 50 27 73 2 43 -11 -13 -22 -23 -26 -23 -4 0
-2 7 5 15 6 8 10 20 8 27 -3 9 -6 9 -12 0z m-19 -88 c-3 -3 -12 -4 -19 -1 -8
3 -5 6 6 6 11 1 17 -2 13 -5z m-487 -65 c0 -4 -7 -6 -15 -3 -8 4 -15 10 -15
15 0 4 7 6 15 3 8 -4 15 -10 15 -15z m56 -6 c-11 -11 -48 -14 -41 -3 3 5 16
10 27 10 12 0 18 -3 14 -7z m-66 -49 c0 -8 -5 -12 -10 -9 -6 4 -8 11 -5 16 9
14 15 11 15 -7z m65 -54 c-9 -14 -45 -32 -45 -23 0 7 24 22 48 32 2 0 0 -3 -3
-9z m-150 -40 c3 -5 1 -10 -4 -10 -6 0 -11 5 -11 10 0 6 2 10 4 10 3 0 8 -4
11 -10z m29 -31 c4 6 14 7 23 4 14 -5 11 -8 -12 -14 -30 -9 -45 -4 -45 13 0 7
5 6 14 -1 9 -8 16 -8 20 -2z"/>
<path d="M14169 13393 c-19 -3 -31 -15 -44 -43 -9 -21 -14 -43 -10 -50 31 -51
142 0 114 52 -5 10 -7 18 -3 18 3 0 1 7 -6 15 -7 8 -15 14 -19 14 -3 -1 -18
-4 -32 -6z m31 -42 c0 -25 -14 -41 -36 -41 -26 0 -32 18 -12 38 14 14 48 16
48 3z"/>
<path d="M14156 13334 c-4 -11 -1 -14 11 -12 9 2 18 9 21 16 6 18 -25 15 -32
-4z"/>
<path d="M13376 13381 c-19 -4 -35 -18 -47 -40 -17 -32 -17 -36 -2 -53 21 -23
38 -23 74 3 18 12 29 29 29 44 0 28 -10 55 -19 54 -3 -1 -19 -4 -35 -8z m24
-46 c0 -12 -28 -35 -44 -35 -8 0 -7 35 1 43 12 13 43 7 43 -8z"/>
<path d="M13365 13329 c-11 -17 1 -21 15 -4 8 9 8 15 2 15 -6 0 -14 -5 -17
-11z"/>
<path d="M13727 13368 c-29 -46 -30 -66 -3 -83 24 -16 27 -16 61 5 32 20 36
26 33 59 -3 34 -5 36 -40 39 -29 3 -40 -1 -51 -20z m57 -17 c10 -15 -4 -39
-25 -44 -10 -3 -19 -2 -19 3 0 4 9 10 21 13 13 3 18 10 14 17 -5 9 -10 9 -18
1 -6 -6 -16 -11 -21 -11 -12 1 23 30 35 30 4 0 10 -4 13 -9z"/>
<path d="M13925 12998 c-16 -6 -37 -14 -45 -19 -8 -5 -27 -14 -41 -20 -33 -13
-53 -53 -39 -78 13 -24 28 -30 111 -37 73 -7 107 -23 94 -43 -8 -14 -25 -11
-105 18 -72 27 -113 26 -207 -3 -43 -13 -91 -26 -106 -29 -28 -4 -29 -3 -23
27 11 54 12 61 20 78 7 15 9 15 27 -3 24 -24 57 -24 88 0 20 15 23 24 17 55
-7 34 -9 36 -47 36 -36 0 -42 -4 -52 -29 -7 -19 -17 -29 -29 -28 -11 1 -16 7
-14 14 4 8 -3 13 -19 13 -14 0 -25 3 -25 8 0 4 -13 7 -29 7 -16 0 -33 -3 -37
-7 -4 -5 -16 -8 -26 -8 -10 0 -18 -6 -18 -14 0 -7 -12 -26 -26 -41 -14 -15
-23 -34 -20 -41 3 -8 1 -14 -4 -14 -6 0 -9 -24 -7 -55 2 -30 0 -52 -5 -49 -4
3 -8 14 -8 25 0 10 -7 19 -15 19 -34 0 -75 30 -75 55 0 16 -6 25 -15 25 -8 0
-15 -4 -15 -8 0 -5 -14 -6 -31 -4 -30 4 -31 3 -26 -21 5 -16 2 -29 -8 -37 -23
-19 -6 -32 31 -25 20 3 33 2 32 -4 -2 -5 2 -10 7 -12 6 -1 16 -9 24 -16 7 -8
20 -12 27 -9 8 3 14 -1 14 -8 0 -8 6 -17 13 -19 6 -3 -7 -6 -30 -6 -33 -1 -45
4 -53 19 -12 23 -50 27 -50 5 0 -8 -6 -15 -14 -15 -20 0 -31 -19 -18 -32 6 -6
8 -17 5 -24 -6 -17 20 -18 49 -3 15 8 22 8 27 0 9 -14 147 -41 209 -41 58 0
122 29 184 81 41 34 103 69 123 69 4 0 3 -9 0 -20 -4 -12 -1 -27 5 -35 10 -13
8 -15 -13 -15 -14 0 -29 5 -32 10 -9 15 -45 12 -45 -4 0 -8 -7 -16 -15 -20
-20 -7 -19 -26 1 -26 11 0 15 -6 11 -20 -7 -28 4 -32 32 -11 18 14 32 16 56
11 43 -10 73 -6 110 14 17 9 38 16 48 16 10 0 20 7 23 15 7 16 51 20 73 6 19
-12 -5 -26 -42 -23 -22 2 -28 -1 -24 -12 4 -9 2 -18 -3 -21 -15 -9 -12 -25 4
-25 8 0 16 -8 18 -17 3 -15 9 -13 35 15 17 17 40 32 52 32 12 0 21 5 21 10 0
6 7 10 15 10 8 0 15 5 15 11 0 6 7 17 15 25 27 28 7 41 -68 46 -72 5 -127 23
-134 45 -3 7 9 6 39 -4 38 -13 46 -13 75 1 35 17 41 39 19 69 -16 21 -51 32
-134 42 -64 7 -83 18 -63 38 9 9 16 8 31 -1 25 -15 49 -15 83 1 31 14 34 24
10 30 -15 4 -15 6 5 12 32 11 28 29 -5 20 -27 -6 -27 -6 -9 14 21 23 16 24
-29 9z m-243 -54 c3 -3 4 -14 1 -25 -7 -26 -53 -27 -53 -1 0 10 3 22 7 25 8 8
38 9 45 1z m-222 -86 c0 -6 -6 -5 -15 2 -8 7 -15 14 -15 16 0 2 7 1 15 -2 8
-4 15 -11 15 -16z m53 -5 c-7 -2 -19 -2 -25 0 -7 3 -2 5 12 5 14 0 19 -2 13
-5z m-53 -32 c0 -6 -4 -13 -10 -16 -5 -3 -10 1 -10 9 0 9 5 16 10 16 6 0 10
-4 10 -9z m-35 -11 c3 -5 1 -10 -4 -10 -6 0 -11 5 -11 10 0 6 2 10 4 10 3 0 8
-4 11 -10z m115 -15 c0 -4 -7 -19 -15 -34 -14 -29 -58 -52 -48 -25 2 7 11 10
19 7 10 -3 16 5 20 26 4 17 10 31 15 31 5 0 9 -2 9 -5z m-108 -91 c17 11 28
14 24 7 -10 -16 -64 -42 -69 -33 -2 4 -7 16 -10 27 -7 20 -7 20 8 0 15 -19 16
-19 47 -1z"/>
<path d="M13645 12929 c-4 -6 -5 -13 -2 -16 7 -7 27 6 27 18 0 12 -17 12 -25
-2z"/>
<path d="M13232 12971 c-7 -8 -18 -25 -23 -39 -19 -51 39 -71 85 -29 19 17 23
29 19 54 -5 29 -8 32 -36 30 -17 -1 -37 -8 -45 -16z m49 -24 c-1 -4 -1 -13 -1
-21 0 -7 -9 -16 -21 -19 -28 -7 -38 22 -14 40 19 13 37 14 36 0z"/>
<path d="M13245 12930 c-3 -5 1 -10 9 -10 9 0 16 5 16 10 0 6 -4 10 -9 10 -6
0 -13 -4 -16 -10z"/>
<path d="M14046 12948 c-29 -46 -28 -63 4 -82 30 -17 31 -17 66 5 32 19 35 25
30 52 -3 16 -6 33 -6 38 0 5 -18 9 -40 9 -30 0 -43 -5 -54 -22z m66 -14 c11
-11 -4 -42 -23 -47 -24 -6 -44 24 -27 41 13 13 41 16 50 6z"/>
<path d="M14075 12919 c-4 -6 -5 -13 -2 -16 7 -7 27 6 27 18 0 12 -17 12 -25
-2z"/>
<path d="M13815 12593 c-16 -3 -35 -9 -42 -15 -7 -5 -17 -7 -23 -3 -11 7 -59
-43 -60 -62 0 -19 28 -30 109 -42 83 -13 91 -16 91 -37 0 -20 -34 -17 -83 8
-53 28 -129 28 -214 0 -85 -28 -96 -35 -160 -98 -34 -33 -64 -54 -78 -54 -28
0 -58 43 -52 73 4 20 4 20 6 -3 1 -14 8 -33 16 -44 24 -32 63 -10 149 85 8 9
17 41 21 73 5 54 5 57 -22 68 -37 15 -71 19 -78 8 -3 -5 -11 -7 -18 -4 -14 5
-81 -92 -72 -106 3 -6 1 -10 -6 -10 -8 0 -7 -5 2 -17 12 -14 12 -16 -1 -11
-22 8 -15 77 10 100 21 20 26 38 11 38 -5 0 -12 10 -15 23 -6 21 -7 21 -20 3
-8 -10 -19 -16 -23 -13 -21 13 -31 -9 -23 -51 4 -23 4 -42 -1 -42 -4 0 -7 -22
-5 -50 1 -27 -2 -50 -6 -50 -4 0 -8 13 -8 29 0 29 -24 59 -34 43 -3 -5 -18 -7
-32 -4 -26 5 -27 3 -21 -27 4 -20 2 -31 -4 -31 -8 0 -7 -5 1 -15 7 -8 20 -15
29 -15 9 0 23 -5 31 -10 13 -9 13 -11 1 -19 -12 -8 -9 -11 12 -17 16 -3 26 -9
23 -11 -14 -14 93 -63 138 -63 45 0 98 26 156 76 34 30 75 61 91 70 34 17 57
10 38 -12 -6 -8 -9 -23 -6 -34 6 -24 -5 -26 -23 -5 -14 17 -55 21 -45 4 4 -5
-1 -19 -11 -30 -16 -17 -16 -19 -1 -19 10 0 17 -8 17 -21 0 -13 4 -18 12 -13
6 4 27 8 47 10 20 1 36 3 36 4 0 2 9 4 20 5 11 2 34 8 50 15 l30 12 -25 20
-25 21 25 -8 c14 -4 31 -12 38 -19 19 -18 -8 -49 -44 -50 -19 -1 -28 -6 -26
-15 1 -7 -3 -19 -9 -27 -9 -11 -7 -14 11 -14 16 0 20 -4 16 -15 -3 -8 -3 -15
1 -15 8 0 43 41 43 52 0 4 8 8 18 8 22 0 94 69 89 84 -2 6 -19 16 -38 22 -34
12 -78 58 -66 70 3 4 20 1 37 -6 38 -16 96 -5 110 19 22 42 -53 91 -138 91
-38 0 -75 17 -67 30 3 5 25 1 50 -8 42 -15 47 -15 82 2 26 12 33 20 24 26 -8
4 -10 13 -6 20 7 11 -12 32 -25 28 -3 0 -18 -3 -35 -5z m-430 -124 c11 -17 -1
-21 -15 -4 -8 9 -8 15 -2 15 6 0 14 -5 17 -11z m55 -13 c0 -2 -9 -6 -20 -9
-11 -3 -18 -1 -14 4 5 9 34 13 34 5z m-50 -36 c0 -5 -5 -10 -11 -10 -5 0 -7 5
-4 10 3 6 8 10 11 10 2 0 4 -4 4 -10z"/>
<path d="M13124 12567 c-26 -31 -29 -66 -7 -83 26 -19 44 -17 77 10 27 21 29
26 20 57 -8 29 -15 34 -41 36 -21 1 -37 -6 -49 -20z m60 -16 c10 -15 -4 -39
-25 -44 -25 -7 -36 17 -19 38 14 17 36 20 44 6z"/>
<path d="M13145 12530 c-3 -5 1 -10 9 -10 9 0 16 5 16 10 0 6 -4 10 -9 10 -6
0 -13 -4 -16 -10z"/>
<path d="M13533 12550 c-3 -11 -9 -20 -13 -20 -4 0 -7 -15 -6 -32 1 -43 43
-61 84 -36 31 19 37 42 23 81 -9 22 -17 27 -47 27 -27 0 -37 -5 -41 -20z m62
-20 c3 -6 3 -19 0 -30 -8 -26 -55 -28 -55 -2 0 33 40 56 55 32z"/>
<path d="M13555 12511 c-6 -11 9 -23 19 -14 9 9 7 23 -3 23 -6 0 -12 -4 -16
-9z"/>
<path d="M13962 12537 c-6 -7 -15 -25 -21 -40 -9 -22 -7 -30 11 -47 27 -24 46
-25 78 -3 36 24 38 30 26 68 -10 32 -15 35 -47 35 -20 0 -41 -6 -47 -13z m65
-33 c5 -15 -24 -44 -43 -44 -17 0 -19 46 -1 53 18 8 40 3 44 -9z"/>
<path d="M13987 12503 c-12 -11 -8 -23 8 -23 8 0 15 7 15 15 0 16 -12 20 -23
8z"/>
<path d="M13462 12185 c-46 -55 -5 -121 58 -95 43 18 53 41 36 82 -12 27 -20
33 -46 33 -19 0 -37 -8 -48 -20z m65 -31 c6 -16 -19 -44 -38 -44 -11 0 -21 38
-14 50 10 16 45 12 52 -6z"/>
<path d="M13485 12149 c-10 -15 1 -23 20 -15 9 3 13 10 10 16 -8 13 -22 13
-30 -1z"/>
<path d="M10959 12623 c-7 -10 -9 -15 -5 -11 5 4 14 0 21 -9 11 -14 12 -13 10
5 -2 31 -10 35 -26 15z"/>
<path d="M16960 9720 c0 -22 1 -23 24 -14 23 9 20 34 -4 34 -13 0 -20 -7 -20
-20z"/>
<path d="M17172 9508 c6 -18 28 -21 28 -4 0 9 -7 16 -16 16 -9 0 -14 -5 -12
-12z"/>
<path d="M16624 7772 c-20 -7 -20 -7 -2 -26 16 -17 18 -18 18 -3 0 10 8 17 21
17 11 0 17 5 14 10 -7 11 -19 11 -51 2z"/>
<path d="M16525 7290 c-4 -6 3 -10 14 -10 25 0 27 6 6 13 -8 4 -17 2 -20 -3z"/>
<path d="M15665 5130 c-3 -5 -1 -10 4 -10 6 0 11 5 11 10 0 6 -2 10 -4 10 -3
0 -8 -4 -11 -10z"/>
<path d="M14205 4263 l-18 -28 23 20 23 20 -7 -20 c-5 -15 -4 -17 4 -8 8 7 9
17 3 28 -9 14 -12 13 -28 -12z"/>
<path d="M14110 4190 c0 -5 7 -10 16 -10 8 0 12 5 9 10 -3 6 -10 10 -16 10 -5
0 -9 -4 -9 -10z"/>
<path d="M13320 20450 c0 -5 5 -10 11 -10 5 0 7 5 4 10 -3 6 -8 10 -11 10 -2
0 -4 -4 -4 -10z"/>
<path d="M13074 20405 c3 -8 1 -15 -4 -15 -6 0 -10 -4 -10 -10 0 -6 10 -5 25
2 19 9 22 14 14 25 -15 18 -33 17 -25 -2z"/>
<path d="M6530 19980 c0 -5 5 -10 11 -10 5 0 7 5 4 10 -3 6 -8 10 -11 10 -2 0
-4 -4 -4 -10z"/>
<path d="M6585 19680 c-3 -5 -2 -10 4 -10 5 0 13 5 16 10 3 6 2 10 -4 10 -5 0
-13 -4 -16 -10z"/>
<path d="M14420 19630 c0 -5 5 -10 11 -10 5 0 7 5 4 10 -3 6 -8 10 -11 10 -2
0 -4 -4 -4 -10z"/>
<path d="M14581 19424 c0 -11 3 -14 6 -6 3 7 2 16 -1 19 -3 4 -6 -2 -5 -13z"/>
<path d="M3087 19273 c-13 -12 -7 -43 8 -43 12 0 35 28 35 44 0 8 -35 7 -43
-1z"/>
<path d="M14728 19213 c7 -3 16 -2 19 1 4 3 -2 6 -13 5 -11 0 -14 -3 -6 -6z"/>
<path d="M14663 19175 c-9 -25 4 -29 17 -6 7 15 7 21 0 21 -6 0 -13 -7 -17
-15z"/>
<path d="M14730 19026 c0 -9 5 -16 10 -16 6 0 10 4 10 9 0 6 -4 13 -10 16 -5
3 -10 -1 -10 -9z"/>
<path d="M14695 18970 c-3 -5 -1 -10 4 -10 6 0 11 5 11 10 0 6 -2 10 -4 10 -3
0 -8 -4 -11 -10z"/>
<path d="M14660 18831 c0 -6 4 -13 10 -16 6 -3 7 1 4 9 -7 18 -14 21 -14 7z"/>
<path d="M14700 18681 c0 -5 5 -13 10 -16 6 -3 10 -2 10 4 0 5 -4 13 -10 16
-5 3 -10 2 -10 -4z"/>
<path d="M6500 18602 c0 -12 19 -26 26 -19 2 2 -2 10 -11 17 -9 8 -15 8 -15 2z"/>
<path d="M14726 17791 c-4 -7 -5 -15 -2 -18 9 -9 19 4 14 18 -4 11 -6 11 -12
0z"/>
<path d="M14723 17730 c-27 -21 -29 -30 -8 -30 13 0 41 37 33 45 -2 2 -13 -5
-25 -15z"/>
<path d="M14626 17731 c-4 -7 -5 -15 -2 -18 9 -9 19 4 14 18 -4 11 -6 11 -12
0z"/>
<path d="M14607 17693 c-4 -3 -7 -13 -7 -22 1 -13 3 -13 11 2 11 19 8 33 -4
20z"/>
<path d="M4 5330 c0 -63 1 -89 3 -57 2 31 2 83 0 115 -2 31 -3 5 -3 -58z"/>
<path d="M15681 3714 c0 -11 3 -14 6 -6 3 7 2 16 -1 19 -3 4 -6 -2 -5 -13z"/>
<path d="M0 3435 c0 -87 2 -95 19 -95 67 0 80 132 17 175 -11 8 -24 15 -28 15
-5 0 -8 -43 -8 -95z"/>
<path d="M10226 3381 c-19 -7 -18 -8 4 -14 13 -3 26 -4 29 -2 2 3 -2 5 -10 5
-11 0 -11 2 1 10 18 11 3 12 -24 1z"/>
<path d="M11700 2440 c0 -22 5 -40 10 -40 6 0 10 18 10 40 0 22 -4 40 -10 40
-5 0 -10 -18 -10 -40z"/>
<path d="M11790 2306 c0 -8 5 -18 10 -21 6 -3 10 3 10 14 0 12 -4 21 -10 21
-5 0 -10 -6 -10 -14z"/>
<path d="M11832 2295 c0 -16 2 -22 5 -12 2 9 2 23 0 30 -3 6 -5 -1 -5 -18z"/>
<path d="M11940 1146 c0 -14 5 -26 10 -26 6 0 10 9 10 19 0 11 -4 23 -10 26
-6 4 -10 -5 -10 -19z"/>
<path d="M11947 1104 c-11 -11 -9 -92 3 -99 6 -3 10 -15 10 -26 0 -10 5 -19
10 -19 6 0 10 -15 10 -34 0 -18 7 -51 16 -72 19 -45 26 -214 9 -214 -5 0 -2
-5 7 -10 16 -10 41 -67 52 -122 4 -16 12 -28 19 -28 9 0 12 -25 12 -89 0 -49
3 -87 7 -85 3 2 9 -31 13 -73 10 -123 10 -122 24 -88 7 17 15 73 18 125 5 84
2 104 -21 172 -14 42 -26 85 -26 96 0 11 -3 22 -7 24 -5 2 -28 84 -52 183 -24
99 -47 190 -52 203 -5 13 -9 37 -10 55 -1 38 -31 112 -42 101z"/>
<path d="M9537 303 c-11 -10 -8 -161 2 -168 5 -3 17 2 25 11 15 14 16 14 16
-1 0 -9 5 -13 10 -10 6 3 10 -1 10 -9 0 -9 5 -16 10 -16 6 0 10 -6 10 -12 0
-7 10 -25 23 -40 16 -21 28 -26 45 -22 25 7 30 24 7 24 -18 0 -20 20 -2 20 6
0 3 6 -8 12 -24 14 -54 49 -55 63 0 6 -9 18 -20 28 -11 9 -20 26 -20 37 0 11
-4 20 -10 20 -5 0 -12 16 -16 35 -6 34 -14 42 -27 28z"/>
</g>
</svg>
