<svg width="123" height="36" viewBox="0 0 123 36" fill="none" xmlns="http://www.w3.org/2000/svg">
<path d="M51.275 24.65C52.4083 24.65 53.2333 24.4583 53.75 24.075C54.2667 23.6917 54.525 23.15 54.525 22.45C54.525 22.0333 54.4333 21.675 54.25 21.375C54.0833 21.075 53.8333 20.8083 53.5 20.575C53.1833 20.325 52.7917 20.1 52.325 19.9C51.8583 19.6833 51.325 19.475 50.725 19.275C50.125 19.0583 49.5417 18.825 48.975 18.575C48.425 18.3083 47.9333 17.9833 47.5 17.6C47.0833 17.2167 46.7417 16.7583 46.475 16.225C46.225 15.6917 46.1 15.05 46.1 14.3C46.1 12.7333 46.6417 11.5083 47.725 10.625C48.8083 9.725 50.2833 9.275 52.15 9.275C53.2333 9.275 54.1917 9.4 55.025 9.65C55.875 9.88333 56.5417 10.1417 57.025 10.425L56.05 12.975C55.4833 12.6583 54.8583 12.4167 54.175 12.25C53.5083 12.0833 52.8167 12 52.1 12C51.25 12 50.5833 12.175 50.1 12.525C49.6333 12.875 49.4 13.3667 49.4 14C49.4 14.3833 49.475 14.7167 49.625 15C49.7917 15.2667 50.0167 15.5083 50.3 15.725C50.6 15.9417 50.9417 16.1417 51.325 16.325C51.725 16.5083 52.1583 16.6833 52.625 16.85C53.4417 17.15 54.1667 17.4583 54.8 17.775C55.45 18.075 55.9917 18.4417 56.425 18.875C56.875 19.2917 57.2167 19.7917 57.45 20.375C57.6833 20.9417 57.8 21.6333 57.8 22.45C57.8 24.0167 57.2417 25.2333 56.125 26.1C55.025 26.95 53.4083 27.375 51.275 27.375C50.5583 27.375 49.9 27.325 49.3 27.225C48.7167 27.1417 48.1917 27.0333 47.725 26.9C47.275 26.7667 46.8833 26.6333 46.55 26.5C46.2167 26.35 45.95 26.2167 45.75 26.1L46.675 23.525C47.125 23.775 47.7333 24.025 48.5 24.275C49.2667 24.525 50.1917 24.65 51.275 24.65ZM61.8971 10.475L64.9221 9.975V13.925H69.5721V16.45H64.9221V21.775C64.9221 22.825 65.0888 23.575 65.4221 24.025C65.7554 24.475 66.3221 24.7 67.1221 24.7C67.6721 24.7 68.1554 24.6417 68.5721 24.525C69.0054 24.4083 69.3471 24.3 69.5971 24.2L70.0971 26.6C69.7471 26.75 69.2888 26.9 68.7221 27.05C68.1554 27.2167 67.4888 27.3 66.7221 27.3C65.7888 27.3 65.0054 27.175 64.3721 26.925C63.7554 26.675 63.2638 26.3167 62.8971 25.85C62.5304 25.3667 62.2721 24.7917 62.1221 24.125C61.9721 23.4417 61.8971 22.6667 61.8971 21.8V10.475ZM85.6495 20.45C85.6495 21.4833 85.4995 22.425 85.1995 23.275C84.8995 24.125 84.4745 24.85 83.9245 25.45C83.3745 26.05 82.7078 26.5167 81.9245 26.85C81.1578 27.1833 80.3078 27.35 79.3745 27.35C78.4412 27.35 77.5912 27.1833 76.8245 26.85C76.0578 26.5167 75.3995 26.05 74.8495 25.45C74.2995 24.85 73.8662 24.125 73.5495 23.275C73.2495 22.425 73.0995 21.4833 73.0995 20.45C73.0995 19.4167 73.2495 18.4833 73.5495 17.65C73.8662 16.8 74.2995 16.075 74.8495 15.475C75.4162 14.875 76.0828 14.4167 76.8495 14.1C77.6162 13.7667 78.4578 13.6 79.3745 13.6C80.2912 13.6 81.1328 13.7667 81.8995 14.1C82.6828 14.4167 83.3495 14.875 83.8995 15.475C84.4495 16.075 84.8745 16.8 85.1745 17.65C85.4912 18.4833 85.6495 19.4167 85.6495 20.45ZM82.5495 20.45C82.5495 19.15 82.2662 18.125 81.6995 17.375C81.1495 16.6083 80.3745 16.225 79.3745 16.225C78.3745 16.225 77.5912 16.6083 77.0245 17.375C76.4745 18.125 76.1995 19.15 76.1995 20.45C76.1995 21.7667 76.4745 22.8083 77.0245 23.575C77.5912 24.3417 78.3745 24.725 79.3745 24.725C80.3745 24.725 81.1495 24.3417 81.6995 23.575C82.2662 22.8083 82.5495 21.7667 82.5495 20.45ZM97.837 16.65C97.587 16.5667 97.237 16.4833 96.787 16.4C96.3537 16.3 95.8454 16.25 95.262 16.25C94.9287 16.25 94.5704 16.2833 94.187 16.35C93.8204 16.4167 93.562 16.475 93.412 16.525V27H90.387V14.55C90.9704 14.3333 91.6954 14.1333 92.562 13.95C93.4454 13.75 94.4204 13.65 95.487 13.65C95.687 13.65 95.9204 13.6667 96.187 13.7C96.4537 13.7167 96.7204 13.75 96.987 13.8C97.2537 13.8333 97.512 13.8833 97.762 13.95C98.012 14 98.212 14.05 98.362 14.1L97.837 16.65Z" fill="#61E9C2"/>
<path d="M101.366 20.525C101.366 19.375 101.533 18.3667 101.866 17.5C102.216 16.6333 102.675 15.9167 103.241 15.35C103.808 14.7667 104.458 14.3333 105.191 14.05C105.925 13.75 106.675 13.6 107.441 13.6C109.241 13.6 110.641 14.1583 111.641 15.275C112.658 16.3917 113.166 18.0583 113.166 20.275C113.166 20.4417 113.158 20.6333 113.141 20.85C113.141 21.05 113.133 21.2333 113.116 21.4H104.491C104.575 22.45 104.941 23.2667 105.591 23.85C106.258 24.4167 107.216 24.7 108.466 24.7C109.2 24.7 109.866 24.6333 110.466 24.5C111.083 24.3667 111.566 24.225 111.916 24.075L112.316 26.55C112.15 26.6333 111.916 26.725 111.616 26.825C111.333 26.9083 111 26.9833 110.616 27.05C110.25 27.1333 109.85 27.2 109.416 27.25C108.983 27.3 108.541 27.325 108.091 27.325C106.941 27.325 105.941 27.1583 105.091 26.825C104.241 26.475 103.541 26 102.991 25.4C102.441 24.7833 102.033 24.0667 101.766 23.25C101.5 22.4167 101.366 21.5083 101.366 20.525ZM110.141 19.175C110.141 18.7583 110.083 18.3667 109.966 18C109.85 17.6167 109.675 17.2917 109.441 17.025C109.225 16.7417 108.95 16.525 108.616 16.375C108.3 16.2083 107.916 16.125 107.466 16.125C107 16.125 106.591 16.2167 106.241 16.4C105.891 16.5667 105.591 16.7917 105.341 17.075C105.108 17.3583 104.925 17.6833 104.791 18.05C104.658 18.4167 104.566 18.7917 104.516 19.175H110.141Z" fill="#232323"/>
<rect width="39" height="36" rx="13" fill="#61E9C2"/>
<g clip-path="url(#clip0)">
<path d="M16.3862 23.7355C15.4163 23.7355 14.6272 24.5245 14.6272 25.4944C14.6272 26.4643 15.4163 27.2534 16.3862 27.2534C17.356 27.2534 18.1451 26.4643 18.1451 25.4944C18.1451 24.5245 17.356 23.7355 16.3862 23.7355ZM16.3862 26.2712C15.9578 26.2712 15.6093 25.9227 15.6093 25.4943C15.6093 25.066 15.9578 24.7175 16.3862 24.7175C16.8145 24.7175 17.163 25.066 17.163 25.4943C17.163 25.9227 16.8145 26.2712 16.3862 26.2712Z" fill="white"/>
<path d="M22.5559 23.7355C21.586 23.7355 20.7969 24.5245 20.7969 25.4944C20.7969 26.4643 21.586 27.2534 22.5559 27.2534C23.5258 27.2534 24.3148 26.4643 24.3148 25.4944C24.3148 24.5245 23.5257 23.7355 22.5559 23.7355ZM22.5559 26.2712C22.1275 26.2712 21.7791 25.9227 21.7791 25.4943C21.7791 25.066 22.1276 24.7175 22.5559 24.7175C22.9843 24.7175 23.3327 25.066 23.3327 25.4943C23.3327 25.9227 22.9842 26.2712 22.5559 26.2712Z" fill="white"/>
<path d="M22.9889 14.4749H15.9519C15.6806 14.4749 15.4608 14.6947 15.4608 14.9659C15.4608 15.2371 15.6807 15.457 15.9519 15.457H22.9889C23.2601 15.457 23.48 15.2371 23.48 14.9659C23.48 14.6947 23.2601 14.4749 22.9889 14.4749Z" fill="white"/>
<path d="M22.6059 17.0247H16.3349C16.0637 17.0247 15.8438 17.2446 15.8438 17.5158C15.8438 17.787 16.0637 18.0068 16.3349 18.0068H22.6059C22.8771 18.0068 23.0969 17.787 23.0969 17.5158C23.0969 17.2446 22.8771 17.0247 22.6059 17.0247Z" fill="white"/>
<path d="M27.779 12.287C27.5917 12.0572 27.3142 11.9254 27.0177 11.9254H11.7218L11.4129 10.4258C11.3484 10.113 11.135 9.85034 10.842 9.72312L8.68668 8.78757C8.43785 8.67948 8.14867 8.79366 8.04074 9.04241C7.9327 9.29124 8.04688 9.58046 8.29559 9.68839L10.451 10.624L12.827 22.1576C12.9206 22.6119 13.3251 22.9415 13.7889 22.9415H25.5532C25.8245 22.9415 26.0443 22.7217 26.0443 22.4505C26.0443 22.1793 25.8245 21.9594 25.5532 21.9594H13.789L13.4999 20.5565H25.6442C26.1079 20.5565 26.5125 20.2268 26.6061 19.7726L27.9796 13.1055C28.0394 12.8152 27.9663 12.5168 27.779 12.287ZM25.6442 19.5744H13.2976L11.9242 12.9075L27.0177 12.9075L25.6442 19.5744Z" fill="white"/>
</g>
<defs>
<clipPath id="clip0">
<rect width="20" height="20" fill="white" transform="translate(8 8)"/>
</clipPath>
</defs>
</svg>
