<svg width="56" height="56" viewBox="0 0 56 56" fill="none" xmlns="http://www.w3.org/2000/svg">
<path fill-rule="evenodd" clip-rule="evenodd" d="M27.9993 1.74065H28.0229C42.5185 1.74065 54.2694 13.4921 54.2694 27.9877V28.011C54.2694 42.5066 42.5185 54.2578 28.0229 54.2578H27.9993C13.5036 54.2578 1.75274 42.5066 1.75274 28.011V27.9877C1.75274 13.4921 13.5036 1.74065 27.9993 1.74065Z" fill="#151515"/>
<path fill-rule="evenodd" clip-rule="evenodd" d="M33.1718 17.8744C31.3462 16.8009 29.3526 16.2642 27.191 16.2642C25.0291 16.2642 23.0355 16.8009 21.2101 17.8744C19.3844 18.9485 17.939 20.4046 16.8737 22.2426C15.8083 24.0826 15.2758 26.0911 15.2758 28.2683C15.2758 30.6977 15.9325 32.9008 17.2461 34.8802C18.5595 36.8605 20.2817 38.3247 22.4124 39.273C22.371 38.1577 22.4381 37.2355 22.6142 36.5053L24.1502 29.9721C23.8914 29.4621 23.7622 28.8263 23.7622 28.0653C23.7622 27.1797 23.9845 26.4396 24.4294 25.8462C24.8739 25.2517 25.4169 24.9551 26.0583 24.9551C26.5755 24.9551 26.9737 25.1268 27.2529 25.4707C27.5324 25.8151 27.6719 26.2468 27.6719 26.7681C27.6719 27.0917 27.6123 27.4844 27.4934 27.9482C27.3744 28.4121 27.2193 28.9486 27.0281 29.5576C26.8366 30.1679 26.6995 30.6552 26.6169 31.0195C26.4719 31.655 26.591 32.1996 26.9737 32.6527C27.3562 33.1067 27.8631 33.3329 28.494 33.3329C29.6008 33.3329 30.5083 32.7134 31.217 31.4726C31.9252 30.2332 32.2796 28.7269 32.2796 26.9558C32.2796 25.5909 31.8426 24.4808 30.9686 23.6266C30.0945 22.7721 28.8766 22.3451 27.315 22.3451C25.5669 22.3451 24.1525 22.91 23.0718 24.0405C21.9909 25.1715 21.4505 26.5233 21.4505 28.0966C21.4505 29.0345 21.7142 29.8214 22.2419 30.4569C22.4176 30.6654 22.4745 30.8894 22.4124 31.1293C22.3916 31.1917 22.3505 31.3477 22.2884 31.5984C22.2263 31.8479 22.1848 32.0099 22.1641 32.0825C22.0813 32.4163 21.8849 32.5203 21.5747 32.3954C20.7782 32.0616 20.173 31.4836 19.7595 30.6599C19.3456 29.8371 19.1389 28.8838 19.1389 27.7998C19.1389 27.1019 19.2499 26.4039 19.4724 25.7051C19.6948 25.0077 20.0411 24.3321 20.5118 23.6809C20.9824 23.0294 21.5461 22.4543 22.203 21.9536C22.8597 21.4531 23.6587 21.0526 24.6 20.7505C25.541 20.4478 26.5548 20.2968 27.6409 20.2968C29.1094 20.2968 30.4282 20.625 31.597 21.2815C32.7656 21.9388 33.6578 22.788 34.2733 23.8299C34.8885 24.8717 35.1964 25.9868 35.1964 27.1742C35.1964 28.7377 34.9273 30.1441 34.3898 31.3956C33.8518 32.6454 33.0915 33.6278 32.109 34.3414C31.1263 35.0551 30.0092 35.412 28.7579 35.412C28.127 35.412 27.5374 35.2642 26.9892 34.9665C26.4409 34.6696 26.0634 34.3182 25.8567 33.9115C25.3913 35.7562 25.112 36.855 25.0189 37.209C24.8223 37.9494 24.4189 38.8042 23.8088 39.7729C24.9153 40.1066 26.0428 40.2733 27.191 40.2733C29.3526 40.2733 31.3462 39.7363 33.1718 38.6631C34.9971 37.5898 36.4427 36.1338 37.5081 34.2944C38.5731 32.4555 39.1061 30.4464 39.1061 28.2683C39.1061 26.0911 38.5731 24.0826 37.5081 22.2426C36.4427 20.4046 34.9971 18.9485 33.1718 17.8744Z" fill="white"/>
</svg>
